<?xml version="1.0" encoding="UTF-8" standalone="no"?>
<svg
   xmlns:dc="http://purl.org/dc/elements/1.1/"
   xmlns:cc="http://creativecommons.org/ns#"
   xmlns:rdf="http://www.w3.org/1999/02/22-rdf-syntax-ns#"
   xmlns:svg="http://www.w3.org/2000/svg"
   xmlns="http://www.w3.org/2000/svg"
   viewBox="0 0 334.66666 122.66667"
   height="122.66667"
   width="334.66666"
   xml:space="preserve"
   id="svg2"
   version="1.1"><metadata
     id="metadata8"><rdf:RDF><cc:Work
         rdf:about=""><dc:format>image/svg+xml</dc:format><dc:type
           rdf:resource="http://purl.org/dc/dcmitype/StillImage" /></cc:Work></rdf:RDF></metadata><defs
     id="defs6"><linearGradient
       id="linearGradient32"
       spreadMethod="pad"
       gradientTransform="matrix(115.69154,-108.60323,-108.60323,-115.69154,83.008789,85.880371)"
       gradientUnits="userSpaceOnUse"
       y2="0"
       x2="1"
       y1="0"
       x1="0"><stop
         id="stop24"
         offset="0"
         style="stop-opacity:1;stop-color:#ffffff" /><stop
         id="stop26"
         offset="0.0376344"
         style="stop-opacity:1;stop-color:#ffffff" /><stop
         id="stop28"
         offset="0.49590085"
         style="stop-opacity:1;stop-color:#ffffff" /><stop
         id="stop30"
         offset="1"
         style="stop-opacity:1;stop-color:#a0d9f6" /></linearGradient><clipPath
       id="clipPath42"
       clipPathUnits="userSpaceOnUse"><path
         id="path40"
         d="M 0,0 H 251 V 92 H 0 Z" /></clipPath><clipPath
       id="clipPath50"
       clipPathUnits="userSpaceOnUse"><path
         id="path48"
         d="M -6.85107,93.0352 H 252.563 V -2.87793 H -6.85107 Z" /></clipPath><clipPath
       id="clipPath242"
       clipPathUnits="userSpaceOnUse"><path
         id="path240"
         d="M -98.1362,90.5005 H 294.569 V -1.63379 H -98.1362 Z" /></clipPath><linearGradient
       id="linearGradient256"
       spreadMethod="pad"
       gradientTransform="matrix(-7.5478611,-33.073444,-33.073444,7.5478611,48.880859,58.194336)"
       gradientUnits="userSpaceOnUse"
       y2="0"
       x2="1"
       y1="0"
       x1="0"><stop
         id="stop248"
         offset="0"
         style="stop-opacity:1;stop-color:#ffffff" /><stop
         id="stop250"
         offset="0.0376344"
         style="stop-opacity:1;stop-color:#ffffff" /><stop
         id="stop252"
         offset="0.49590085"
         style="stop-opacity:1;stop-color:#ffffff" /><stop
         id="stop254"
         offset="1"
         style="stop-opacity:1;stop-color:#efeeee" /></linearGradient><linearGradient
       id="linearGradient270"
       spreadMethod="pad"
       gradientTransform="matrix(-10.950438,-47.98296,-47.98296,10.950438,77.020508,66.097656)"
       gradientUnits="userSpaceOnUse"
       y2="0"
       x2="1"
       y1="0"
       x1="0"><stop
         id="stop262"
         offset="0"
         style="stop-opacity:1;stop-color:#ffffff" /><stop
         id="stop264"
         offset="0.0376344"
         style="stop-opacity:1;stop-color:#ffffff" /><stop
         id="stop266"
         offset="0.49590085"
         style="stop-opacity:1;stop-color:#ffffff" /><stop
         id="stop268"
         offset="1"
         style="stop-opacity:1;stop-color:#efeeee" /></linearGradient><linearGradient
       id="linearGradient284"
       spreadMethod="pad"
       gradientTransform="matrix(-11.676991,-51.166592,-51.166592,11.676991,72.000488,68.040527)"
       gradientUnits="userSpaceOnUse"
       y2="0"
       x2="1"
       y1="0"
       x1="0"><stop
         id="stop276"
         offset="0"
         style="stop-opacity:1;stop-color:#ffffff" /><stop
         id="stop278"
         offset="0.0376344"
         style="stop-opacity:1;stop-color:#ffffff" /><stop
         id="stop280"
         offset="0.49590085"
         style="stop-opacity:1;stop-color:#ffffff" /><stop
         id="stop282"
         offset="1"
         style="stop-opacity:1;stop-color:#efeeee" /></linearGradient><linearGradient
       id="linearGradient298"
       spreadMethod="pad"
       gradientTransform="matrix(-7.6766467,-33.637764,-33.637764,7.6766467,98.513672,43.192383)"
       gradientUnits="userSpaceOnUse"
       y2="0"
       x2="1"
       y1="0"
       x1="0"><stop
         id="stop290"
         offset="0"
         style="stop-opacity:1;stop-color:#ffffff" /><stop
         id="stop292"
         offset="0.0376344"
         style="stop-opacity:1;stop-color:#ffffff" /><stop
         id="stop294"
         offset="0.49590085"
         style="stop-opacity:1;stop-color:#ffffff" /><stop
         id="stop296"
         offset="1"
         style="stop-opacity:1;stop-color:#efeeee" /></linearGradient><linearGradient
       id="linearGradient362"
       spreadMethod="pad"
       gradientTransform="matrix(265.38477,0,0,-265.38477,-9.2548828,17.677734)"
       gradientUnits="userSpaceOnUse"
       y2="0"
       x2="1"
       y1="0"
       x1="0"><stop
         id="stop356"
         offset="0"
         style="stop-opacity:1;stop-color:#07aba1" /><stop
         id="stop358"
         offset="0.349462"
         style="stop-opacity:1;stop-color:#07aba1" /><stop
         id="stop360"
         offset="1"
         style="stop-opacity:1;stop-color:#202e63" /></linearGradient><clipPath
       id="clipPath372"
       clipPathUnits="userSpaceOnUse"><path
         id="path370"
         d="M 0,0 H 251 V 92 H 0 Z" /></clipPath><clipPath
       id="clipPath380"
       clipPathUnits="userSpaceOnUse"><path
         id="path378"
         d="M -31.1968,47.5513 H 294.675 V 7.60742 H -31.1968 Z" /></clipPath><linearGradient
       id="linearGradient392"
       spreadMethod="pad"
       gradientTransform="matrix(-67.253838,-162.63965,-162.63965,67.253838,169.29004,119.49414)"
       gradientUnits="userSpaceOnUse"
       y2="0"
       x2="1"
       y1="0"
       x1="0"><stop
         id="stop386"
         offset="0"
         style="stop-opacity:1;stop-color:#07aba1" /><stop
         id="stop388"
         offset="0.349462"
         style="stop-opacity:1;stop-color:#07aba1" /><stop
         id="stop390"
         offset="1"
         style="stop-opacity:1;stop-color:#202e63" /></linearGradient><clipPath
       id="clipPath414"
       clipPathUnits="userSpaceOnUse"><path
         id="path412"
         d="M -39.6816,50.5801 H 274.725 V -6.91992 H -39.6816 Z" /></clipPath><linearGradient
       id="linearGradient426"
       spreadMethod="pad"
       gradientTransform="matrix(-1.8e-6,-41.802971,-41.802971,1.8e-6,117.521,25.664062)"
       gradientUnits="userSpaceOnUse"
       y2="0"
       x2="1"
       y1="0"
       x1="0"><stop
         id="stop420"
         offset="0"
         style="stop-opacity:1;stop-color:#07aba1" /><stop
         id="stop422"
         offset="0.349462"
         style="stop-opacity:1;stop-color:#07aba1" /><stop
         id="stop424"
         offset="1"
         style="stop-opacity:1;stop-color:#202e63" /></linearGradient><clipPath
       id="clipPath448"
       clipPathUnits="userSpaceOnUse"><path
         id="path446"
         d="M -152.489,44.9414 H 308.792 V -2.77441 h -461.281 z" /></clipPath><clipPath
       id="clipPath464"
       clipPathUnits="userSpaceOnUse"><path
         id="path462"
         d="M -20.8618,22.6113 H 262.257 V 2.76562 H -20.8618 Z" /></clipPath><linearGradient
       id="linearGradient476"
       spreadMethod="pad"
       gradientTransform="matrix(283.11865,0,0,-283.11865,-20.861816,12.688477)"
       gradientUnits="userSpaceOnUse"
       y2="0"
       x2="1"
       y1="0"
       x1="0"><stop
         id="stop470"
         offset="0"
         style="stop-opacity:1;stop-color:#07aba1" /><stop
         id="stop472"
         offset="0.349462"
         style="stop-opacity:1;stop-color:#07aba1" /><stop
         id="stop474"
         offset="1"
         style="stop-opacity:1;stop-color:#202e63" /></linearGradient><clipPath
       id="clipPath502"
       clipPathUnits="userSpaceOnUse"><path
         id="path500"
         d="M 0,92 H 251 V 0 H 0 Z" /></clipPath></defs><g
     transform="matrix(1.3333333,0,0,-1.3333333,0,122.66667)"
     id="g10"><g
       id="g12"><g
         id="g14"><g
           id="g20"><g
             id="g22"><path
               id="path34"
               style="fill:url(#linearGradient32);stroke:none"
               d="M 0,0 H 251 V 92 H 0 Z" /></g></g></g></g><g
       id="g36"><g
         clip-path="url(#clipPath42)"
         id="g38"><g
           id="g44"><g
             id="g46" /><g
             id="g234"><g
               id="g232"
               clip-path="url(#clipPath50)"><path
                 id="path52"
                 style="fill:#000000;fill-opacity:1;fill-rule:nonzero;stroke:none"
                 d="M -6.692,-2.798 H 252.406 V 92.955 H -6.692 Z m 259.255,-0.08 H -6.852 v 95.913 h 259.415 z" /><path
                 id="path54"
                 style="fill:#000000;fill-opacity:1;fill-rule:nonzero;stroke:none"
                 d="M 252.484,89.119 H -6.772 v 0.08 h 259.256 z" /><path
                 id="path56"
                 style="fill:#000000;fill-opacity:1;fill-rule:nonzero;stroke:none"
                 d="M 252.484,85.281 H -6.772 v 0.08 h 259.256 z" /><path
                 id="path58"
                 style="fill:#000000;fill-opacity:1;fill-rule:nonzero;stroke:none"
                 d="M 252.484,81.444 H -6.772 v 0.08 h 259.256 z" /><path
                 id="path60"
                 style="fill:#000000;fill-opacity:1;fill-rule:nonzero;stroke:none"
                 d="M 252.484,77.63 H -6.772 v 0.08 h 259.256 z" /><path
                 id="path62"
                 style="fill:#000000;fill-opacity:1;fill-rule:nonzero;stroke:none"
                 d="M 252.484,73.793 H -6.772 v 0.08 h 259.256 z" /><path
                 id="path64"
                 style="fill:#000000;fill-opacity:1;fill-rule:nonzero;stroke:none"
                 d="M 252.484,69.957 H -6.772 v 0.08 h 259.256 z" /><path
                 id="path66"
                 style="fill:#000000;fill-opacity:1;fill-rule:nonzero;stroke:none"
                 d="M 252.484,66.12 H -6.772 v 0.08 h 259.256 z" /><path
                 id="path68"
                 style="fill:#000000;fill-opacity:1;fill-rule:nonzero;stroke:none"
                 d="M 252.484,62.282 H -6.772 v 0.08 h 259.256 z" /><path
                 id="path70"
                 style="fill:#000000;fill-opacity:1;fill-rule:nonzero;stroke:none"
                 d="M 252.484,58.445 H -6.772 v 0.08 h 259.256 z" /><path
                 id="path72"
                 style="fill:#000000;fill-opacity:1;fill-rule:nonzero;stroke:none"
                 d="M 252.484,54.631 H -6.772 v 0.08 h 259.256 z" /><path
                 id="path74"
                 style="fill:#000000;fill-opacity:1;fill-rule:nonzero;stroke:none"
                 d="M 252.484,50.794 H -6.772 v 0.08 h 259.256 z" /><path
                 id="path76"
                 style="fill:#000000;fill-opacity:1;fill-rule:nonzero;stroke:none"
                 d="M 252.484,46.958 H -6.772 v 0.08 h 259.256 z" /><path
                 id="path78"
                 style="fill:#000000;fill-opacity:1;fill-rule:nonzero;stroke:none"
                 d="M 252.484,43.12 H -6.772 v 0.08 h 259.256 z" /><g
                 id="g82"
                 transform="translate(35.8882,39.3633)"><path
                   id="path80"
                   style="fill:#000000;fill-opacity:1;fill-rule:nonzero;stroke:none"
                   d="M 0,0 H -42.66 V -0.08 H -0.019 C -0.014,-0.053 -0.007,-0.027 0,0" /></g><g
                 id="g86"
                 transform="translate(76.397,39.3633)"><path
                   id="path84"
                   style="fill:#000000;fill-opacity:1;fill-rule:nonzero;stroke:none"
                   d="M 0,0 C 0.025,-0.027 0.05,-0.053 0.072,-0.08 H 176.087 V 0 Z" /></g><g
                 id="g90"
                 transform="translate(75.9399,35.5264)"><path
                   id="path88"
                   style="fill:#000000;fill-opacity:1;fill-rule:nonzero;stroke:none"
                   d="m 0,0 c -0.008,-0.004 -0.015,-0.006 -0.021,-0.01 0.025,-0.023 0.047,-0.047 0.07,-0.07 H 176.544 V 0 Z" /></g><g
                 id="g94"
                 transform="translate(34.7925,35.5264)"><path
                   id="path92"
                   style="fill:#000000;fill-opacity:1;fill-rule:nonzero;stroke:none"
                   d="M 0,0 H -41.564 V -0.08 H 0.085 C 0.055,-0.054 0.027,-0.027 0,0" /></g><g
                 id="g98"
                 transform="translate(37.0371,31.7129)"><path
                   id="path96"
                   style="fill:#000000;fill-opacity:1;fill-rule:nonzero;stroke:none"
                   d="M 0,0 H -43.809 V -0.08 H -0.046 C -0.033,-0.054 -0.015,-0.027 0,0" /></g><g
                 id="g102"
                 transform="translate(94.0605,31.7129)"><path
                   id="path100"
                   style="fill:#000000;fill-opacity:1;fill-rule:nonzero;stroke:none"
                   d="M 0,0 C 0.05,-0.026 0.1,-0.053 0.145,-0.08 H 158.424 V 0 Z" /></g><g
                 id="g106"
                 transform="translate(57.7495,27.875)"><path
                   id="path104"
                   style="fill:#000000;fill-opacity:1;fill-rule:nonzero;stroke:none"
                   d="M 0,0 H -64.521 V -0.079 H 0.394 C 0.256,-0.058 0.125,-0.03 0,0" /></g><g
                 id="g110"
                 transform="translate(60.5703,27.875)"><path
                   id="path108"
                   style="fill:#000000;fill-opacity:1;fill-rule:nonzero;stroke:none"
                   d="M 0,0 C -0.125,-0.03 -0.256,-0.058 -0.395,-0.079 H 191.914 V 0 Z" /></g><path
                 id="path112"
                 style="fill:#000000;fill-opacity:1;fill-rule:nonzero;stroke:none"
                 d="M 252.484,23.959 H -6.772 v 0.079 h 259.256 z" /><path
                 id="path114"
                 style="fill:#000000;fill-opacity:1;fill-rule:nonzero;stroke:none"
                 d="M 252.484,20.121 H -6.772 v 0.08 h 259.256 z" /><path
                 id="path116"
                 style="fill:#000000;fill-opacity:1;fill-rule:nonzero;stroke:none"
                 d="M 252.484,16.284 H -6.772 v 0.08 h 259.256 z" /><path
                 id="path118"
                 style="fill:#000000;fill-opacity:1;fill-rule:nonzero;stroke:none"
                 d="M 252.484,12.447 H -6.772 v 0.079 h 259.256 z" /><path
                 id="path120"
                 style="fill:#000000;fill-opacity:1;fill-rule:nonzero;stroke:none"
                 d="M 252.484,8.633 H -6.772 v 0.08 h 259.256 z" /><path
                 id="path122"
                 style="fill:#000000;fill-opacity:1;fill-rule:nonzero;stroke:none"
                 d="M 252.484,4.796 H -6.772 v 0.08 h 259.256 z" /><path
                 id="path124"
                 style="fill:#000000;fill-opacity:1;fill-rule:nonzero;stroke:none"
                 d="M 252.484,0.959 H -6.772 v 0.08 h 259.256 z" /><path
                 id="path126"
                 style="fill:#000000;fill-opacity:1;fill-rule:nonzero;stroke:none"
                 d="M 1.155,-2.838 H 0.997 v 95.833 h 0.158 z" /><path
                 id="path128"
                 style="fill:#000000;fill-opacity:1;fill-rule:nonzero;stroke:none"
                 d="M 9.005,-2.838 H 8.846 v 95.833 h 0.159 z" /><path
                 id="path130"
                 style="fill:#000000;fill-opacity:1;fill-rule:nonzero;stroke:none"
                 d="m 16.853,-2.838 h -0.158 v 95.833 h 0.158 z" /><path
                 id="path132"
                 style="fill:#000000;fill-opacity:1;fill-rule:nonzero;stroke:none"
                 d="m 24.702,-2.838 h -0.158 v 95.833 h 0.158 z" /><path
                 id="path134"
                 style="fill:#000000;fill-opacity:1;fill-rule:nonzero;stroke:none"
                 d="M 32.55,-2.838 H 32.392 V 92.995 H 32.55 Z" /><g
                 id="g138"
                 transform="translate(40.2402,29.4043)"><path
                   id="path136"
                   style="fill:#000000;fill-opacity:1;fill-rule:nonzero;stroke:none"
                   d="m 0,0 v -32.242 h 0.158 v 32.23 C 0.106,-0.008 0.052,-0.005 0,0" /></g><g
                 id="g142"
                 transform="translate(40.3979,40.5293)"><path
                   id="path140"
                   style="fill:#000000;fill-opacity:1;fill-rule:nonzero;stroke:none"
                   d="M 0,0 V 52.466 H -0.158 V 0.041 C -0.102,0.028 -0.051,0.014 0,0" /></g><g
                 id="g146"
                 transform="translate(48.2476,40.3926)"><path
                   id="path144"
                   style="fill:#000000;fill-opacity:1;fill-rule:nonzero;stroke:none"
                   d="M 0,0 V 52.603 H -0.158 V -0.002 C -0.148,-0.003 -0.14,-0.003 -0.13,-0.003 -0.086,-0.001 -0.043,0 0,0" /></g><g
                 id="g150"
                 transform="translate(48.0898,28.875)"><path
                   id="path148"
                   style="fill:#000000;fill-opacity:1;fill-rule:nonzero;stroke:none"
                   d="M 0,0 V -31.713 H 0.158 V -0.007 C 0.105,-0.005 0.052,-0.003 0,0" /></g><g
                 id="g154"
                 transform="translate(56.0957,39.2275)"><path
                   id="path152"
                   style="fill:#000000;fill-opacity:1;fill-rule:nonzero;stroke:none"
                   d="M 0,0 V 53.768 H -0.158 V -0.048 C -0.107,-0.03 -0.051,-0.017 0,0" /></g><g
                 id="g158"
                 transform="translate(55.938,28.752)"><path
                   id="path156"
                   style="fill:#000000;fill-opacity:1;fill-rule:nonzero;stroke:none"
                   d="M 0,0 V -31.59 H 0.158 V 0.004 C 0.106,0.002 0.054,0 0,0" /></g><g
                 id="g162"
                 transform="translate(64.0718,40.4707)"><path
                   id="path160"
                   style="fill:#000000;fill-opacity:1;fill-rule:nonzero;stroke:none"
                   d="M 0,0 V 52.525 H -0.159 V -0.016 C -0.108,-0.01 -0.054,-0.006 0,0" /></g><g
                 id="g166"
                 transform="translate(63.9126,29.0625)"><path
                   id="path164"
                   style="fill:#000000;fill-opacity:1;fill-rule:nonzero;stroke:none"
                   d="M 0,0 V -31.9 H 0.159 V 0.008 C 0.105,0.006 0.055,0 0,0" /></g><g
                 id="g170"
                 transform="translate(71.9199,39.9316)"><path
                   id="path168"
                   style="fill:#000000;fill-opacity:1;fill-rule:nonzero;stroke:none"
                   d="M 0,0 V 53.064 H -0.158 V 0.016 C -0.134,0 -0.113,-0.016 -0.091,-0.031 -0.062,-0.021 -0.03,-0.011 0,0" /></g><g
                 id="g174"
                 transform="translate(71.7622,28.8613)"><path
                   id="path172"
                   style="fill:#000000;fill-opacity:1;fill-rule:nonzero;stroke:none"
                   d="M 0,0 V -31.699 H 0.158 V 0.011 C 0.105,0.007 0.055,0.002 0,0" /></g><g
                 id="g178"
                 transform="translate(79.7681,34.3682)"><path
                   id="path176"
                   style="fill:#000000;fill-opacity:1;fill-rule:nonzero;stroke:none"
                   d="M 0,0 V 58.627 H -0.158 V 0.086 C -0.104,0.058 -0.048,0.029 0,0" /></g><g
                 id="g182"
                 transform="translate(79.6104,29.2705)"><path
                   id="path180"
                   style="fill:#000000;fill-opacity:1;fill-rule:nonzero;stroke:none"
                   d="M 0,0 V -32.108 H 0.158 V -0.004 C 0.104,-0.004 0.053,-0.001 0,0" /></g><g
                 id="g186"
                 transform="translate(87.6172,32.6123)"><path
                   id="path184"
                   style="fill:#000000;fill-opacity:1;fill-rule:nonzero;stroke:none"
                   d="M 0,0 V 60.383 H -0.159 V 0.02 C -0.104,0.014 -0.053,0.007 0,0" /></g><g
                 id="g190"
                 transform="translate(87.4585,29.5059)"><path
                   id="path188"
                   style="fill:#000000;fill-opacity:1;fill-rule:nonzero;stroke:none"
                   d="M 0,0 V -32.344 H 0.159 V 0.02 C 0.106,0.013 0.055,0.006 0,0" /></g><path
                 id="path192"
                 style="fill:#000000;fill-opacity:1;fill-rule:nonzero;stroke:none"
                 d="m 95.466,-2.838 h -0.159 v 95.833 h 0.159 z" /><path
                 id="path194"
                 style="fill:#000000;fill-opacity:1;fill-rule:nonzero;stroke:none"
                 d="m 103.314,-2.838 h -0.159 v 95.833 h 0.159 z" /><path
                 id="path196"
                 style="fill:#000000;fill-opacity:1;fill-rule:nonzero;stroke:none"
                 d="m 111.164,-2.838 h -0.159 v 95.833 h 0.159 z" /><path
                 id="path198"
                 style="fill:#000000;fill-opacity:1;fill-rule:nonzero;stroke:none"
                 d="m 119.012,-2.838 h -0.159 v 95.833 h 0.159 z" /><path
                 id="path200"
                 style="fill:#000000;fill-opacity:1;fill-rule:nonzero;stroke:none"
                 d="m 126.859,-2.838 h -0.156 v 95.833 h 0.156 z" /><path
                 id="path202"
                 style="fill:#000000;fill-opacity:1;fill-rule:nonzero;stroke:none"
                 d="m 134.711,-2.838 h -0.16 v 95.833 h 0.16 z" /><path
                 id="path204"
                 style="fill:#000000;fill-opacity:1;fill-rule:nonzero;stroke:none"
                 d="M 142.559,-2.838 H 142.4 v 95.833 h 0.159 z" /><path
                 id="path206"
                 style="fill:#000000;fill-opacity:1;fill-rule:nonzero;stroke:none"
                 d="m 150.407,-2.838 h -0.16 v 95.833 h 0.16 z" /><path
                 id="path208"
                 style="fill:#000000;fill-opacity:1;fill-rule:nonzero;stroke:none"
                 d="m 158.255,-2.838 h -0.158 v 95.833 h 0.158 z" /><path
                 id="path210"
                 style="fill:#000000;fill-opacity:1;fill-rule:nonzero;stroke:none"
                 d="m 166.104,-2.838 h -0.158 v 95.833 h 0.158 z" /><path
                 id="path212"
                 style="fill:#000000;fill-opacity:1;fill-rule:nonzero;stroke:none"
                 d="m 173.952,-2.838 h -0.158 v 95.833 h 0.158 z" /><path
                 id="path214"
                 style="fill:#000000;fill-opacity:1;fill-rule:nonzero;stroke:none"
                 d="m 181.8,-2.838 h -0.157 v 95.833 h 0.157 z" /><path
                 id="path216"
                 style="fill:#000000;fill-opacity:1;fill-rule:nonzero;stroke:none"
                 d="m 189.775,-2.838 h -0.159 v 95.833 h 0.159 z" /><path
                 id="path218"
                 style="fill:#000000;fill-opacity:1;fill-rule:nonzero;stroke:none"
                 d="m 197.624,-2.838 h -0.158 v 95.833 h 0.158 z" /><path
                 id="path220"
                 style="fill:#000000;fill-opacity:1;fill-rule:nonzero;stroke:none"
                 d="m 205.473,-2.838 h -0.158 v 95.833 h 0.158 z" /><path
                 id="path222"
                 style="fill:#000000;fill-opacity:1;fill-rule:nonzero;stroke:none"
                 d="m 213.32,-2.838 h -0.156 v 95.833 h 0.156 z" /><path
                 id="path224"
                 style="fill:#000000;fill-opacity:1;fill-rule:nonzero;stroke:none"
                 d="m 221.168,-2.838 h -0.157 v 95.833 h 0.157 z" /><path
                 id="path226"
                 style="fill:#000000;fill-opacity:1;fill-rule:nonzero;stroke:none"
                 d="m 229.02,-2.838 h -0.159 v 95.833 h 0.159 z" /><path
                 id="path228"
                 style="fill:#000000;fill-opacity:1;fill-rule:nonzero;stroke:none"
                 d="m 236.867,-2.838 h -0.158 v 95.833 h 0.158 z" /><path
                 id="path230"
                 style="fill:#000000;fill-opacity:1;fill-rule:nonzero;stroke:none"
                 d="m 244.716,-2.838 h -0.159 v 95.833 h 0.159 z" /></g></g></g><g
           id="g236"><g
             id="g238" /><g
             id="g342"><g
               id="g340"
               clip-path="url(#clipPath242)"><g
                 id="g308"><g
                   id="g306"><g
                     id="g304"><g
                       id="g302"><path
                         id="path300"
                         style="fill:url(#linearGradient256);stroke:none"
                         d="m 43.563,31.848 c 0.187,0.111 0.41,0.21 0.666,0.289 -0.452,0.074 -0.875,0.195 -1.214,0.379 -0.222,0.119 -0.413,0.251 -0.603,0.383 -0.134,-0.105 -0.282,-0.203 -0.436,-0.28 -0.078,-0.039 -0.168,-0.069 -0.252,-0.103 0.843,-0.097 1.461,-0.344 1.839,-0.668" /></g></g></g></g><g
                 id="g318"><g
                   id="g316"><g
                     id="g314"><g
                       id="g312"><path
                         id="path310"
                         style="fill:url(#linearGradient270);stroke:none"
                         d="m 74.45,32.461 c -0.345,-0.066 -0.739,-0.105 -1.181,-0.105 -1.548,0 -2.504,0.458 -2.878,1.028 -0.575,-0.112 -1.154,-0.188 -1.825,-0.202 -0.42,-0.01 -0.823,0.031 -1.192,0.109 -0.08,-0.003 -0.158,-0.007 -0.239,-0.007 -0.409,0 -0.776,0.033 -1.103,0.091 -0.419,-0.118 -0.923,-0.189 -1.515,-0.192 -0.251,-0.161 -0.563,-0.296 -0.909,-0.4 0.425,-0.15 0.778,-0.35 1.018,-0.585 0.139,-0.018 0.279,-0.036 0.411,-0.063 0.148,0.01 0.301,0.016 0.462,0.016 0.99,0 1.739,-0.189 2.25,-0.473 0.499,0.226 1.179,0.37 2.043,0.37 0.296,0 0.566,-0.019 0.818,-0.049 0.253,0.03 0.523,0.049 0.817,0.049 0.747,0 1.354,-0.108 1.828,-0.28 0.454,0.21 1.06,0.353 1.827,0.378 -0.238,0.092 -0.455,0.201 -0.632,0.315" /></g></g></g></g><g
                 id="g328"><g
                   id="g326"><g
                     id="g324"><g
                       id="g322"><path
                         id="path320"
                         style="fill:url(#linearGradient284);stroke:none"
                         d="m 64.477,36.376 c 0.407,0 0.774,-0.033 1.101,-0.091 0.142,0.04 0.295,0.075 0.456,0.104 -0.598,0.077 -1.197,0.154 -1.787,0.251 -0.226,0.036 -0.437,0.085 -0.637,0.141 0.11,-0.138 0.184,-0.285 0.221,-0.435 0.203,0.018 0.416,0.03 0.646,0.03" /></g></g></g></g><g
                 id="g338"><g
                   id="g336"><g
                     id="g334"><g
                       id="g332"><path
                         id="path330"
                         style="fill:url(#linearGradient298);stroke:none"
                         d="m 291.083,0.37 c -0.592,0.317 -1.256,0.671 -1.985,1.061 -0.741,0.381 -1.577,0.781 -2.473,1.224 -0.905,0.434 -1.85,0.931 -2.918,1.407 -1.072,0.482 -2.212,0.993 -3.417,1.534 -2.389,1.108 -5.213,2.191 -8.239,3.444 -1.528,0.614 -3.161,1.215 -4.86,1.842 -1.705,0.618 -3.447,1.298 -5.312,1.931 -1.86,0.644 -3.803,1.291 -5.813,1.953 -1.006,0.333 -2.027,0.669 -3.061,1.011 -1.056,0.322 -2.126,0.649 -3.21,0.978 -2.166,0.667 -4.417,1.328 -6.722,2.012 -1.147,0.349 -2.335,0.672 -3.544,0.988 -1.209,0.32 -2.426,0.643 -3.661,0.971 -2.472,0.652 -5.003,1.327 -7.617,1.972 -2.646,0.61 -5.343,1.231 -8.084,1.862 -2.748,0.631 -5.549,1.281 -8.47,1.828 -2.898,0.579 -5.863,1.148 -8.873,1.727 -1.511,0.278 -3.005,0.61 -4.563,0.848 -1.551,0.252 -3.113,0.505 -4.682,0.76 -3.145,0.513 -6.341,1.023 -9.581,1.528 -3.241,0.499 -6.576,0.885 -9.927,1.319 -3.358,0.415 -6.743,0.876 -10.187,1.255 -3.467,0.328 -6.961,0.658 -10.482,0.991 -1.762,0.161 -3.535,0.322 -5.312,0.482 l -2.674,0.242 c -0.895,0.066 -1.794,0.12 -2.695,0.176 -3.611,0.215 -7.243,0.43 -10.89,0.648 -1.83,0.102 -3.663,0.205 -5.499,0.308 l -1.379,0.076 -0.174,0.009 c 0.148,-0.003 -0.052,0.003 -0.061,0.005 l -0.33,0.014 -0.657,0.03 -2.627,0.118 c -13.35,0.609 -27.043,1.449 -40.537,2.515 -1.628,0.127 -3.254,0.259 -4.879,0.394 1.156,-0.506 1.356,-1.444 0.608,-2.104 0.347,-0.255 0.551,-0.562 0.551,-0.889 v -0.206 c 0,-0.433 -0.357,-0.829 -0.927,-1.119 0.174,-0.161 0.284,-0.337 0.349,-0.519 0.221,0.025 0.445,0.04 0.681,0.04 0.281,-0.018 0.562,-0.038 0.841,-0.057 0.307,-0.023 0.574,-0.085 0.823,-0.166 0.613,-0.125 1.176,-0.409 1.48,-0.671 0.429,-0.369 0.545,-0.819 0.32,-1.231 -0.089,-0.164 -0.242,-0.314 -0.427,-0.455 1.039,-0.024 1.8,-0.26 2.279,-0.596 0.505,0.355 1.323,0.6 2.454,0.6 0.139,0 0.273,-0.004 0.405,-0.012 0.443,0.137 0.988,0.218 1.64,0.218 1.513,0 2.465,-0.438 2.858,-0.99 0.509,0.286 1.259,0.475 2.253,0.475 4.088,0 4.088,-3.195 0,-3.195 -1.513,0 -2.465,0.439 -2.858,0.99 -0.51,-0.285 -1.261,-0.474 -2.253,-0.474 -0.14,0 -0.275,0.004 -0.405,0.011 -0.444,-0.136 -0.99,-0.217 -1.64,-0.217 -1.131,0 -1.949,0.246 -2.454,0.599 -0.504,-0.353 -1.323,-0.599 -2.454,-0.599 -0.828,0 -1.483,0.133 -1.975,0.341 -0.498,-0.38 -1.337,-0.651 -2.523,-0.651 -0.74,0 -1.344,0.106 -1.817,0.277 -0.5,-0.231 -1.19,-0.379 -2.07,-0.379 -0.294,0 -0.564,0.018 -0.817,0.048 -0.252,-0.03 -0.522,-0.048 -0.818,-0.048 -0.99,0 -1.738,0.188 -2.249,0.472 -0.499,-0.225 -1.179,-0.37 -2.044,-0.37 -0.478,0 -0.899,0.046 -1.265,0.123 -0.123,-0.008 -0.245,-0.019 -0.372,-0.019 h -0.408 c -0.438,0 -0.857,0.047 -1.239,0.13 -0.103,-0.753 -1.12,-1.47 -3.056,-1.47 -1.559,0 -2.521,0.466 -2.891,1.041 -0.123,-0.007 -0.249,-0.01 -0.379,-0.01 -0.02,0 -0.036,10e-4 -0.056,10e-4 -0.344,-0.066 -0.733,-0.105 -1.172,-0.105 -1.93,0 -2.948,0.712 -3.055,1.464 -0.113,-0.287 -0.382,-0.56 -0.838,-0.79 -0.993,-0.501 -2.646,-0.606 -3.846,-0.25 -0.079,-0.003 -0.152,-0.011 -0.235,-0.011 -0.462,0 -0.87,0.042 -1.227,0.115 -1.031,0.057 -1.751,0.337 -2.181,0.705 -0.511,-0.306 -1.283,-0.512 -2.318,-0.512 -0.682,0 -1.25,0.091 -1.704,0.239 -2.66,0.264 -3.083,2.054 -1.291,2.817 -0.168,0.056 -0.328,0.122 -0.473,0.195 -0.393,0.199 -0.664,0.434 -0.815,0.705 -0.002,0.007 -0.004,0.015 -0.006,0.024 -0.056,0.063 -0.112,0.128 -0.158,0.196 -0.108,0.165 -0.109,0.342 -0.154,0.514 -0.06,0.231 0.092,0.488 0.332,0.715 -2.861,0.336 -3.017,2.489 -0.471,3.026 -0.319,0.318 -0.431,0.692 -0.332,1.051 -0.244,0.874 0.763,1.854 3.027,1.854 1.893,0 2.903,-0.684 3.044,-1.42 0.312,0.052 0.661,0.08 1.046,0.08 0.105,0 0.207,-0.003 0.307,-0.008 0.1,0.005 0.201,0.008 0.306,0.008 0.507,0 0.95,-0.05 1.331,-0.135 0.304,0.631 1.292,1.166 2.964,1.166 0.07,0 0.136,-0.003 0.204,-0.005 0.069,0.002 0.134,0.005 0.204,0.005 1.032,0 1.802,-0.204 2.312,-0.507 0.432,0.124 0.955,0.198 1.573,0.198 1.758,0 2.757,-0.591 3.004,-1.264 0.583,0.388 1.496,0.645 2.517,0.645 h 0.999 c 0.376,0.571 1.336,1.031 2.887,1.031 0.599,0 1.109,-0.07 1.534,-0.187 0.424,0.117 0.933,0.187 1.532,0.187 1.063,0 1.848,-0.218 2.357,-0.537 0.366,0.227 0.864,0.404 1.511,0.485 -22.879,2.033 -45.245,4.727 -65.688,8.098 -11.998,1.983 -23.341,4.198 -33.659,6.665 -10.325,2.461 -19.647,5.162 -27.657,8.051 -8.006,2.888 -14.724,5.957 -19.93,9.062 -5.22,3.094 -9.055,6.181 -11.681,8.918 -0.325,0.343 -0.663,0.676 -0.959,1.005 -0.283,0.333 -0.558,0.656 -0.825,0.97 -0.575,0.626 -0.99,1.233 -1.445,1.797 -0.813,1.135 -1.484,2.127 -1.949,2.945 -0.504,0.815 -0.811,1.454 -1.041,1.885 -0.233,0.434 -0.352,0.658 -0.352,0.658 0,0 -0.091,-0.226 -0.269,-0.666 -0.155,-0.44 -0.465,-1.098 -0.65,-1.966 -0.254,-0.869 -0.452,-1.95 -0.541,-3.237 -0.076,-1.286 -0.065,-2.783 0.289,-4.456 0.123,-0.844 0.393,-1.722 0.682,-2.652 0.357,-0.917 0.716,-1.89 1.236,-2.887 0.968,-2.008 2.443,-4.131 4.315,-6.351 3.803,-4.42 9.609,-9.12 17.357,-13.579 7.72,-4.472 17.275,-8.725 28.124,-12.56 10.85,-3.846 22.998,-7.265 35.954,-10.238 12.962,-2.968 26.733,-5.504 40.954,-7.545 14.219,-2.051 28.872,-3.647 43.626,-4.808 14.783,-1.152 29.573,-1.852 44.336,-2.129 l 2.639,-0.041 1.408,-0.026 1.242,-0.033 c 1.658,-0.042 3.313,-0.084 4.96,-0.125 3.306,-0.072 6.599,-0.141 9.868,-0.211 l 2.453,-0.049 2.43,-0.109 c 1.621,-0.073 3.237,-0.145 4.847,-0.217 3.23,-0.131 6.435,-0.261 9.615,-0.39 6.321,-0.4 12.57,-0.764 18.69,-1.169 3.032,-0.259 6.048,-0.503 9.039,-0.736 2.986,-0.236 5.955,-0.449 8.831,-0.761 5.768,-0.6 11.492,-1.058 16.898,-1.743 2.733,-0.308 5.42,-0.612 8.058,-0.911 2.63,-0.318 5.176,-0.685 7.712,-1.001 1.266,-0.163 2.519,-0.323 3.759,-0.483 1.241,-0.16 2.477,-0.31 3.67,-0.495 2.399,-0.352 4.747,-0.701 7.061,-1.02 1.161,-0.162 2.301,-0.323 3.427,-0.481 1.113,-0.179 2.205,-0.356 3.287,-0.53 2.16,-0.352 4.269,-0.69 6.341,-1 4.094,-0.661 7.876,-1.357 11.452,-1.947 1.762,-0.324 3.451,-0.635 5.065,-0.931 0.809,-0.152 1.603,-0.296 2.386,-0.431 0.776,-0.141 1.516,-0.291 2.247,-0.432 5.85,-1.126 10.469,-2.059 13.593,-2.735 3.135,-0.663 4.816,-1.053 4.816,-1.053 0,0 -1.119,0.734 -3.486,2.004" /></g></g></g></g></g></g></g></g></g><g
       id="g344"><g
         id="g346"><g
           id="g352"><g
             id="g354"><path
               id="path364"
               style="fill:url(#linearGradient362);stroke:none"
               d="M 0,0 H 251 V 3.391 C 231.029,13.878 189.383,21.051 87.094,21.83 v 0 C 43.163,22.165 13.859,31.643 0,37.436 v 0 z" /></g></g></g></g><g
       id="g366"><g
         clip-path="url(#clipPath372)"
         id="g368"><g
           id="g374"><g
             id="g376" /><g
             id="g406"><g
               id="g404"
               clip-path="url(#clipPath380)"><g
                 id="g402"><g
                   id="g400"><g
                     id="g398"><g
                       id="g396"><path
                         id="path394"
                         style="fill:url(#linearGradient392);stroke:none"
                         d="m 294.675,9.817 c 0,0 -1.398,0.158 -3.987,0.404 -2.583,0.257 -6.381,0.585 -11.17,0.959 -0.602,0.046 -1.209,0.099 -1.844,0.142 -0.637,0.038 -1.282,0.083 -1.944,0.131 -1.317,0.093 -2.697,0.19 -4.135,0.291 -2.898,0.153 -5.984,0.371 -9.298,0.536 -1.666,0.066 -3.374,0.149 -5.122,0.238 -0.874,0.044 -1.759,0.088 -2.657,0.132 -0.906,0.029 -1.822,0.056 -2.75,0.084 -1.856,0.052 -3.748,0.124 -5.678,0.194 -0.961,0.044 -1.946,0.055 -2.938,0.074 -0.991,0.02 -1.99,0.039 -3,0.06 -2.021,0.03 -4.069,0.101 -6.163,0.126 -2.092,0.009 -4.223,0.02 -6.392,0.031 -4.316,0.075 -8.796,-0.047 -13.356,-0.065 -2.28,0 -4.595,-0.081 -6.932,-0.146 -2.337,-0.07 -4.699,-0.131 -7.08,-0.184 -4.761,-0.193 -9.611,-0.429 -14.526,-0.644 -2.448,-0.162 -4.918,-0.326 -7.406,-0.491 -1.241,-0.078 -2.485,-0.155 -3.737,-0.233 l -1.876,-0.116 -1.874,-0.165 c -2.497,-0.214 -5.01,-0.431 -7.537,-0.647 -1.261,-0.104 -2.527,-0.207 -3.795,-0.311 L 158.525,10.14 157.45,10.044 155.44,9.859 C 144.174,8.861 132.75,8.181 121.188,7.842 109.644,7.514 98.036,7.523 86.61,7.911 75.186,8.294 63.942,9.087 53.172,10.272 c -10.766,1.19 -21.066,2.785 -30.519,4.808 -9.45,2.016 -18.054,4.454 -25.341,7.207 -7.302,2.741 -13.212,5.824 -17.518,8.86 -2.132,1.528 -3.932,3.014 -5.313,4.455 -0.714,0.711 -1.299,1.42 -1.866,2.085 -0.517,0.68 -1.004,1.323 -1.371,1.951 -0.806,1.238 -1.298,2.371 -1.655,3.35 -0.346,0.983 -0.545,1.817 -0.633,2.496 -0.141,0.672 -0.117,1.196 -0.143,1.541 -0.006,0.348 -0.01,0.526 -0.01,0.526 0,0 0.163,-0.159 0.479,-0.469 0.313,-0.308 0.752,-0.767 1.396,-1.342 0.615,-0.581 1.443,-1.277 2.425,-2.07 0.525,-0.389 1.036,-0.816 1.672,-1.242 0.304,-0.216 0.617,-0.439 0.938,-0.667 0.33,-0.225 0.693,-0.449 1.051,-0.682 2.868,-1.857 6.767,-3.881 11.716,-5.796 4.942,-1.925 11.017,-3.699 18.009,-5.229 6.997,-1.533 14.925,-2.815 23.533,-3.832 8.608,-1.023 17.908,-1.772 27.633,-2.291 19.453,-1.033 40.616,-1.144 61.765,-0.532 10.559,0.296 21.194,0.782 31.497,1.413 l 2.03,0.125 0.507,0.032 0.255,0.015 c 0.006,0 0.159,0.012 0.048,0.002 l 0.133,0.007 1.068,0.056 c 1.425,0.072 2.845,0.144 4.263,0.217 2.831,0.134 5.651,0.267 8.454,0.4 0.698,0.032 1.398,0.064 2.098,0.088 l 2.1,0.036 c 1.398,0.023 2.791,0.047 4.178,0.069 2.773,0.037 5.525,0.073 8.254,0.108 2.732,-0.004 5.441,-0.076 8.116,-0.115 2.681,-0.056 5.328,-0.075 7.944,-0.187 2.614,-0.117 5.197,-0.241 7.743,-0.373 1.272,-0.065 2.537,-0.129 3.79,-0.192 1.256,-0.053 2.497,-0.182 3.729,-0.268 2.468,-0.192 4.894,-0.381 7.273,-0.582 2.39,-0.176 4.718,-0.438 7.005,-0.69 2.279,-0.253 4.518,-0.504 6.718,-0.749 2.189,-0.274 4.32,-0.578 6.403,-0.87 1.038,-0.146 2.068,-0.291 3.086,-0.434 1.016,-0.141 2.021,-0.288 3,-0.459 1.966,-0.328 3.881,-0.645 5.737,-0.972 0.928,-0.161 1.842,-0.321 2.746,-0.477 0.894,-0.175 1.775,-0.347 2.642,-0.517 1.737,-0.336 3.416,-0.666 5.031,-1.002 1.618,-0.326 3.153,-0.699 4.645,-1.027 1.488,-0.335 2.918,-0.656 4.272,-0.996 2.695,-0.702 5.183,-1.29 7.348,-1.934 1.086,-0.31 2.114,-0.604 3.08,-0.882 0.965,-0.272 1.839,-0.572 2.665,-0.826 0.82,-0.263 1.581,-0.496 2.268,-0.725 0.678,-0.235 1.292,-0.449 1.845,-0.64 2.199,-0.768 3.284,-1.233 3.284,-1.233" /></g></g></g></g></g></g></g><g
           id="g408"><g
             id="g410" /><g
             id="g440"><g
               id="g438"
               clip-path="url(#clipPath414)"><g
                 id="g436"><g
                   id="g434"><g
                     id="g432"><g
                       id="g430"><path
                         id="path428"
                         style="fill:url(#linearGradient426);stroke:none"
                         d="m -15.17,50.58 c 0,0 19.861,-36.843 129.313,-34.5 109.449,2.343 150.439,-11.5 160.582,-23 0,0 -11.832,22.787 -164.809,16.185 C -41.409,2.734 -39.681,47.812 -39.681,47.812 Z" /></g></g></g></g></g></g></g><g
           id="g442"><g
             id="g444" /><g
             id="g456"><g
               id="g454"
               clip-path="url(#clipPath448)"><g
                 id="g452"
                 transform="translate(-120.2979,44.9414)"><path
                   id="path450"
                   style="fill:#a1a1a1;fill-opacity:1;fill-rule:nonzero;stroke:none"
                   d="m 0,0 c 0,0 47.027,-47.916 196.145,-29.807 149.12,18.111 212.851,4.668 232.945,-9.752 0,0 -28.462,29.698 -235.099,-0.185 C -10.417,-69.306 -32.191,-7.138 -32.191,-7.138 Z" /></g></g></g></g><g
           id="g458"><g
             id="g460" /><g
             id="g490"><g
               id="g488"
               clip-path="url(#clipPath464)"><g
                 id="g486"><g
                   id="g484"><g
                     id="g482"><g
                       id="g480"><path
                         id="path478"
                         style="fill:url(#linearGradient476);stroke:none"
                         d="m 262.257,20.872 c 0,0 -1.116,0.108 -3.223,0.274 -1.055,0.077 -2.351,0.184 -3.888,0.279 -1.532,0.102 -3.292,0.218 -5.273,0.318 -0.99,0.053 -2.032,0.109 -3.125,0.166 -1.095,0.047 -2.242,0.097 -3.436,0.149 -2.388,0.116 -4.98,0.176 -7.745,0.263 -1.381,0.049 -2.811,0.072 -4.282,0.094 -1.473,0.024 -2.986,0.05 -4.539,0.075 -1.554,0.023 -3.148,0.011 -4.78,0.019 -1.633,-0.002 -3.303,0.015 -5.008,-0.002 -6.813,-0.081 -14.205,-0.221 -21.977,-0.631 -1.943,-0.1 -3.914,-0.201 -5.908,-0.303 -1.981,-0.143 -3.992,-0.287 -6.022,-0.433 -1.014,-0.074 -2.035,-0.148 -3.061,-0.223 -0.511,-0.038 -1.024,-0.075 -1.541,-0.113 -0.511,-0.049 -1.023,-0.099 -1.538,-0.148 -2.056,-0.197 -4.131,-0.397 -6.224,-0.597 -1.043,-0.106 -2.1,-0.194 -3.147,-0.313 -1.042,-0.127 -2.091,-0.255 -3.143,-0.384 -2.1,-0.257 -4.218,-0.515 -6.348,-0.775 -1.071,-0.117 -2.114,-0.299 -3.172,-0.453 -1.057,-0.16 -2.114,-0.321 -3.176,-0.482 -2.118,-0.327 -4.262,-0.631 -6.389,-0.981 C 136.814,15.248 128.188,13.79 119.53,12.381 102.221,9.557 84.74,6.947 68.025,5.161 59.67,4.271 51.513,3.577 43.711,3.182 35.914,2.781 28.478,2.664 21.632,2.856 14.788,3.045 8.543,3.551 3.146,4.275 c -5.419,0.701 -9.911,1.706 -13.487,2.619 -0.884,0.242 -1.72,0.471 -2.506,0.687 -0.4,0.102 -0.765,0.221 -1.113,0.338 -0.352,0.115 -0.692,0.227 -1.019,0.334 -0.655,0.214 -1.261,0.413 -1.816,0.595 -0.569,0.173 -1.014,0.381 -1.45,0.54 -1.707,0.664 -2.617,1.017 -2.617,1.017 l 0.818,0.49 c 0,0 0.885,-0.349 2.549,-1.001 0.427,-0.157 0.859,-0.362 1.414,-0.532 0.541,-0.178 1.133,-0.375 1.772,-0.586 0.32,-0.105 0.651,-0.215 0.994,-0.329 0.341,-0.115 0.696,-0.233 1.087,-0.333 C -11.459,7.9 -10.643,7.675 -9.78,7.436 -6.281,6.534 -1.885,5.536 3.447,4.835 8.755,4.11 14.916,3.596 21.694,3.395 28.472,3.189 35.856,3.289 43.615,3.67 c 7.762,0.377 15.894,1.049 24.231,1.919 16.684,1.744 34.166,4.311 51.491,7.096 8.667,1.389 17.305,2.829 25.813,4.232 2.132,0.347 4.286,0.647 6.413,0.971 1.063,0.158 2.128,0.317 3.185,0.474 1.063,0.153 2.108,0.332 3.185,0.448 2.137,0.255 4.259,0.51 6.37,0.763 1.052,0.126 2.104,0.253 3.149,0.378 1.051,0.116 2.11,0.203 3.157,0.305 2.098,0.197 4.179,0.392 6.241,0.586 0.513,0.048 1.026,0.096 1.541,0.144 0.514,0.036 1.03,0.075 1.544,0.111 1.029,0.072 2.05,0.144 3.067,0.215 2.033,0.142 4.047,0.283 6.033,0.42 2,0.099 3.972,0.197 5.917,0.291 7.785,0.394 15.185,0.518 22.004,0.583 1.707,0.014 3.377,-0.006 5.01,-0.008 1.634,-0.012 3.228,-0.003 4.784,-0.03 1.553,-0.028 3.068,-0.057 4.539,-0.085 1.472,-0.025 2.903,-0.05 4.283,-0.102 2.768,-0.094 5.36,-0.16 7.746,-0.282 1.196,-0.054 2.342,-0.106 3.437,-0.156 1.092,-0.059 2.135,-0.118 3.126,-0.172 1.977,-0.106 3.737,-0.224 5.269,-0.331 1.534,-0.097 2.832,-0.209 3.886,-0.288 2.105,-0.17 3.221,-0.28 3.221,-0.28" /></g></g></g></g></g></g></g><g
           transform="translate(262.9951,12.0645)"
           id="g492"><path
             id="path494"
             style="fill:#ffffff;fill-opacity:1;fill-rule:nonzero;stroke:none"
             d="m 0,0 -50.321,-0.107 -50.322,-0.045 -100.644,-0.075 0.35,0.083 -1.102,-0.678 -0.47,-0.29 -0.296,0.344 -2.132,2.476 0.813,-0.032 -3.444,-2.749 -0.532,-0.425 -0.311,0.477 -2.904,4.465 0.888,0.002 -7.031,-11.121 -0.558,-0.882 -0.281,0.913 -5.89,18.992 0.739,-0.015 -6.945,-14.558 -0.283,-0.593 -0.359,0.583 -3.53,5.752 0.595,-0.01 -2.791,-3.627 -0.24,-0.314 -0.311,0.296 -1.34,1.273 0.266,-0.08 -48.89,0.046 -48.89,0.105 48.89,0.105 48.89,0.045 h 0.179 l 0.085,-0.08 1.346,-1.27 -0.552,-0.017 2.77,3.633 0.325,0.426 0.27,-0.437 3.564,-5.747 -0.642,-0.01 6.86,14.568 0.439,0.932 0.3,-0.947 5.999,-18.982 -0.84,0.031 6.966,11.132 0.436,0.697 0.452,-0.694 2.911,-4.463 -0.844,0.053 3.459,2.744 0.468,0.37 0.346,-0.402 2.116,-2.48 -0.766,0.054 1.105,0.677 0.135,0.084 h 0.212 l 100.644,-0.075 50.322,-0.046 z" /></g></g></g><g
       id="g496"><g
         clip-path="url(#clipPath502)"
         id="g498"><g
           transform="translate(211.1484,73.7031)"
           id="g504"><path
             id="path506"
             style="fill:#22484d;fill-opacity:1;fill-rule:nonzero;stroke:none"
             d="M 0,0 C -0.644,0.016 -1.343,0.075 -1.533,0.248 -1.909,0.59 -2.183,1.308 -2.251,2.197 -2.32,3.085 -2.354,6.231 -5.499,6.504 -8.645,6.778 -10.456,5 -13.225,3.598 c -2.769,-1.401 -8.582,-4.204 -12.136,-4.956 -2.847,-0.603 1.735,-0.679 4.149,-0.545 1.511,0.701 10.608,4.914 12.321,5.598 0,0 -8.05,-4.057 -12.216,-6.179 -0.547,-0.38 -1.04,-0.807 -0.836,-0.994 0.304,-0.279 2.826,-0.463 4.863,-0.22 1.293,0.55 6.07,2.604 8.559,3.977 0,0 -4.995,-2.923 -7.916,-4.157 -0.796,-0.449 -1.644,-1.045 -1.334,-1.412 0.424,-0.505 3.183,-0.287 4.841,0.221 1.141,0.69 3.985,2.425 4.782,3.035 0.068,0.054 0.105,0.084 0.105,0.084 -0.028,-0.024 -0.064,-0.053 -0.105,-0.084 -0.487,-0.385 -2.603,-2.045 -4.397,-3.224 -0.445,-0.51 -0.869,-1.172 -0.441,-1.502 0.654,-0.506 2.834,0.308 4.223,1.046 0.663,0.547 1.79,1.512 2.225,2.099 0,0 -0.821,-1.17 -2.034,-2.276 -0.421,-0.606 -1,-1.595 -0.584,-1.963 0.512,-0.456 2.142,0.086 3.127,0.755 0.365,0.427 0.965,1.167 1.252,1.741 0,0 -0.338,-1.08 -1.001,-1.932 -0.107,-0.394 -0.118,-0.872 0.347,-1.077 0.748,-0.329 1.576,0.128 2.32,0.866 0.232,0.337 0.552,0.823 0.778,1.253 0,0 -0.321,-0.845 -0.647,-1.492 -0.047,-0.289 -0.017,-0.604 0.285,-0.736 0.417,-0.181 1.885,0.318 2.799,1.932 z" /></g><g
           transform="translate(211.2998,73.1255)"
           id="g508"><path
             id="path510"
             style="fill:#dbebee;fill-opacity:1;fill-rule:nonzero;stroke:none"
             d="m 0,0 c 0,0.001 -0.247,0.003 -0.27,0.004 -0.327,0.007 -0.655,0.023 -0.979,0.067 -0.1,0.014 -0.199,0.031 -0.297,0.053 -0.329,0.075 -0.43,0.188 -0.52,0.291 -0.367,0.411 -0.612,1.12 -0.678,1.976 C -2.747,2.438 -2.751,2.492 -2.755,2.552 -2.822,3.567 -3,6.266 -5.806,6.51 -6.014,6.528 -6.222,6.537 -6.425,6.537 -6.647,6.537 -6.872,6.526 -7.094,6.502 -8.667,6.337 -9.938,5.512 -11.311,4.818 l -0.243,-0.122 c -0.218,-0.109 -0.437,-0.217 -0.656,-0.326 -0.34,-0.168 -0.678,-0.343 -1.022,-0.5 -0.581,-0.266 -1.07,-0.484 -1.07,-0.486 0,-0.006 0.481,0.189 1.063,0.437 0.338,0.144 0.667,0.307 0.998,0.464 0.75,0.352 1.475,0.744 2.218,1.111 0.686,0.339 1.402,0.627 2.153,0.787 0.474,0.1 0.961,0.149 1.445,0.149 0.196,0 0.399,-0.009 0.603,-0.026 2.629,-0.229 2.793,-2.709 2.862,-3.768 0.004,-0.066 0.008,-0.117 0.012,-0.163 0.049,-0.633 0.185,-1.39 0.554,-1.917 0.383,-0.547 0.741,-0.541 1.375,-0.619 0.102,-0.012 1.028,-0.054 1.028,-0.044 C 0.007,-0.137 0.004,-0.068 0,0" /></g><g
           transform="translate(238.9336,72.3232)"
           id="g512"><path
             id="path514"
             style="fill:#22484d;fill-opacity:1;fill-rule:nonzero;stroke:none"
             d="m 0,0 c -3.555,0.752 -9.367,3.556 -12.137,4.957 -2.768,1.401 -4.58,3.179 -7.725,2.906 -3.146,-0.274 -3.179,-3.419 -3.247,-4.307 -0.07,-0.889 -0.343,-1.608 -0.719,-1.949 -0.195,-0.177 -0.922,-0.235 -1.577,-0.25 l -0.146,-6.386 c 0.905,-1.739 2.455,-2.275 2.885,-2.088 0.303,0.131 0.332,0.447 0.285,0.735 -0.325,0.648 -0.647,1.493 -0.647,1.493 0.225,-0.43 0.546,-0.917 0.778,-1.254 0.744,-0.738 1.571,-1.194 2.319,-0.865 0.466,0.205 0.454,0.683 0.348,1.076 -0.663,0.853 -1.001,1.932 -1.001,1.932 0.287,-0.573 0.887,-1.313 1.253,-1.74 0.983,-0.669 2.614,-1.212 3.126,-0.756 0.416,0.369 -0.163,1.358 -0.584,1.964 -1.212,1.105 -2.034,2.276 -2.034,2.276 0.434,-0.587 1.56,-1.552 2.224,-2.099 1.39,-0.738 3.57,-1.552 4.224,-1.046 0.428,0.33 0.004,0.992 -0.441,1.502 -1.795,1.179 -3.91,2.838 -4.398,3.224 -0.039,0.03 -0.076,0.059 -0.104,0.084 0,0 0.037,-0.031 0.104,-0.084 0.798,-0.61 3.642,-2.345 4.782,-3.035 1.659,-0.508 4.418,-0.727 4.842,-0.222 0.309,0.368 -0.537,0.963 -1.334,1.412 -2.922,1.235 -7.916,4.158 -7.916,4.158 2.488,-1.374 7.266,-3.428 8.559,-3.977 2.037,-0.244 4.558,-0.059 4.863,0.219 0.203,0.188 -0.289,0.614 -0.836,0.994 C -8.42,0.997 -16.47,5.054 -16.47,5.054 -14.758,4.37 -5.66,0.156 -4.15,-0.544 -1.734,-0.678 2.846,-0.602 0,0" /></g><g
           transform="translate(213.4209,73.104)"
           id="g516"><path
             id="path518"
             style="fill:#dbebee;fill-opacity:1;fill-rule:nonzero;stroke:none"
             d="m 0,0 c 0,0.002 0.247,0.003 0.271,0.004 0.326,0.008 0.654,0.023 0.978,0.067 0.1,0.014 0.199,0.031 0.297,0.053 0.329,0.075 0.43,0.188 0.52,0.291 0.367,0.411 0.612,1.12 0.678,1.976 0.003,0.047 0.007,0.101 0.011,0.161 0.067,1.016 0.246,3.714 3.051,3.958 0.208,0.018 0.416,0.028 0.619,0.028 0.222,0 0.447,-0.012 0.67,-0.035 1.572,-0.166 2.843,-0.99 4.215,-1.685 0.082,-0.041 0.164,-0.081 0.244,-0.122 0.218,-0.109 0.437,-0.217 0.656,-0.326 0.34,-0.168 0.678,-0.343 1.023,-0.5 0.58,-0.266 1.069,-0.484 1.069,-0.486 0,-0.006 -0.481,0.19 -1.063,0.438 -0.338,0.143 -0.666,0.306 -0.998,0.463 -0.75,0.353 -1.474,0.744 -2.217,1.111 C 9.337,5.735 8.622,6.023 7.87,6.183 7.396,6.283 6.91,6.332 6.425,6.332 6.228,6.332 6.025,6.323 5.823,6.306 3.193,6.077 3.029,3.597 2.96,2.538 2.956,2.472 2.952,2.421 2.948,2.375 2.899,1.742 2.763,0.985 2.394,0.458 2.011,-0.089 1.653,-0.083 1.019,-0.161 0.918,-0.173 -0.009,-0.215 -0.009,-0.205 -0.007,-0.137 -0.003,-0.068 0,0" /></g><g
           transform="translate(210.9121,76.5181)"
           id="g520"><path
             id="path522"
             style="fill:#22484d;fill-opacity:1;fill-rule:nonzero;stroke:none"
             d="m 0,0 c -0.083,-0.062 -0.139,-0.177 -0.139,-0.311 0,-0.198 0.122,-0.358 0.274,-0.358 h 1.06 C 0.715,-0.607 0.291,-0.36 0,0" /></g><g
           transform="translate(213.7812,76.5181)"
           id="g524"><path
             id="path526"
             style="fill:#22484d;fill-opacity:1;fill-rule:nonzero;stroke:none"
             d="m 0,0 c -0.292,-0.36 -0.717,-0.607 -1.197,-0.669 h 1.061 c 0.152,0 0.273,0.16 0.273,0.358 C 0.137,-0.177 0.081,-0.062 0,0" /></g><g
           transform="translate(213.9863,77.6777)"
           id="g528"><path
             id="path530"
             style="fill:#22484d;fill-opacity:1;fill-rule:nonzero;stroke:none"
             d="m 0,0 c 0,-0.906 -0.734,-1.641 -1.641,-1.641 -0.906,0 -1.64,0.735 -1.64,1.641 0,0.906 0.734,1.641 1.64,1.641 C -0.734,1.641 0,0.906 0,0" /></g><g
           transform="translate(211.7129,51.6406)"
           id="g532"><path
             id="path534"
             style="fill:#22484d;fill-opacity:1;fill-rule:nonzero;stroke:none"
             d="M 0,0 C 0.293,0.209 0.596,0.423 0.896,0.634 0.969,0.686 1.043,0.738 1.117,0.791 L 1.198,4.366 C 0.845,4.512 0.408,4.677 -0.078,4.855 Z" /></g><g
           transform="translate(212.5937,42.1191)"
           id="g536"><path
             id="path538"
             style="fill:#22484d;fill-opacity:1;fill-rule:nonzero;stroke:none"
             d="m 0,0 c -0.226,0.23 -0.48,0.477 -0.741,0.723 l 0.085,-5.336 c 0.181,0.261 0.376,0.511 0.568,0.756 z" /></g><g
           transform="translate(212.6445,44.3223)"
           id="g540"><path
             id="path542"
             style="fill:#22484d;fill-opacity:1;fill-rule:nonzero;stroke:none"
             d="M 0,0 0.131,5.712 C -0.258,5.454 -0.601,5.219 -0.896,5 L -0.829,0.829 C -0.559,0.552 -0.276,0.272 0,0" /></g><g
           transform="translate(212.2695,58.6245)"
           id="g544"><path
             id="path546"
             style="fill:#22484d;fill-opacity:1;fill-rule:nonzero;stroke:none"
             d="M 0,0 C 0.225,-0.104 0.458,-0.213 0.693,-0.324 L 1.101,17.518 C 0.808,17.322 0.455,17.207 0.076,17.207 c -0.379,0 -0.73,0.115 -1.024,0.312 L -0.674,0.314 C -0.458,0.212 -0.232,0.108 0,0" /></g><g
           transform="translate(212.415,36.3457)"
           id="g548"><path
             id="path550"
             style="fill:#22484d;fill-opacity:1;fill-rule:nonzero;stroke:none"
             d="m 0,0 c -0.183,-0.24 -0.33,-0.482 -0.448,-0.719 l 0.062,-3.828 0.16,-0.529 0.17,0.529 0.106,4.609 C 0.032,0.041 0.016,0.021 0,0" /></g><g
           transform="translate(211.9375,37.5059)"
           id="g552"><path
             id="path554"
             style="fill:#22484d;fill-opacity:1;fill-rule:nonzero;stroke:none"
             d="M 0,0 C 0.049,0.07 0.1,0.139 0.149,0.209 0.002,0.404 -0.148,0.596 -0.302,0.787 -0.473,1 -0.646,1.213 -0.809,1.434 -1.687,2.629 -1.309,3.125 -1.126,3.672 -1.035,3.949 -0.49,4.539 0.124,5.137 -0.13,5.381 -0.396,5.625 -0.651,5.855 -0.899,5.605 -1.137,5.361 -1.354,5.125 -2.838,3.502 -2.429,2.697 -2.126,1.912 -1.889,1.297 -0.975,0.502 -0.207,-0.314 -0.143,-0.211 -0.074,-0.105 0,0" /></g><g
           transform="translate(210.79,50.9727)"
           id="g556"><path
             id="path558"
             style="fill:#22484d;fill-opacity:1;fill-rule:nonzero;stroke:none"
             d="M 0,0 C 0.369,0.274 0.794,0.578 1.231,0.887 0.403,1.472 -0.459,2.076 -1.13,2.581 -2.312,3.469 -0.781,4.529 0.066,4.991 0.3,5.118 0.653,5.268 1.083,5.436 0.793,5.543 0.483,5.656 0.16,5.773 -0.194,5.902 -0.568,6.04 -0.946,6.18 -1.143,6.075 -1.337,5.97 -1.524,5.862 -2.622,5.233 -3.852,4.177 -3.294,2.774 -2.859,1.685 -1.732,1.08 -0.788,0.493 -0.524,0.329 -0.262,0.165 0,0" /></g><g
           transform="translate(212.8545,36.5293)"
           id="g560"><path
             id="path562"
             style="fill:#22484d;fill-opacity:1;fill-rule:nonzero;stroke:none"
             d="m 0,0 c -0.036,0.07 -0.076,0.139 -0.115,0.207 -0.111,-0.125 -0.216,-0.25 -0.312,-0.375 0.242,-0.334 0.459,-0.703 0.54,-1.109 0.099,-0.489 -0.081,-1.026 -0.253,-1.479 0.036,0.02 0.094,0.074 0.119,0.1 0.043,0.047 0.077,0.099 0.108,0.154 0.306,0.557 0.392,1.1 0.23,1.709 C 0.244,-0.518 0.132,-0.252 0,0" /></g><g
           transform="translate(215.2539,63.9688)"
           id="g564"><path
             id="path566"
             style="fill:#22484d;fill-opacity:1;fill-rule:nonzero;stroke:none"
             d="m 0,0 c -0.177,0 -0.319,0.077 -0.319,0.171 0,0.095 0.142,0.171 0.319,0.171 0.176,0 0.318,-0.076 0.318,-0.171 C 0.318,0.077 0.176,0 0,0 m 3.798,-2.638 c -0.121,1.111 -0.909,1.897 -1.12,2.034 -0.213,0.137 -0.076,0.325 -0.41,0.701 -0.333,0.376 -1.211,0.786 -2.317,0.769 -1.106,-0.017 -1.424,-1.009 -1.314,-1.06 0.111,-0.051 0.126,-0.152 0.126,-0.152 -0.27,0.043 -0.191,-0.292 0.354,-0.702 0.545,-0.41 1.53,-0.889 1.819,-0.804 0.205,0.061 0.419,-0.047 0.555,-0.227 0.058,-0.076 0.101,-0.165 0.122,-0.259 0.02,-0.08 0.022,-0.163 0.008,-0.244 C 1.553,-2.976 1.176,-3.25 0.901,-3.452 0.498,-3.747 0.068,-3.991 -0.338,-4.279 -0.824,-4.624 -1.687,-5.032 -2.672,-5.49 c 0.686,-0.319 1.417,-0.664 2.11,-1.027 0.462,0.173 0.925,0.35 1.361,0.529 1.924,0.786 3.121,2.239 2.999,3.35" /></g><g
           transform="translate(213.75,50.6133)"
           id="g568"><path
             id="path570"
             style="fill:#22484d;fill-opacity:1;fill-rule:nonzero;stroke:none"
             d="m 0,0 c -0.012,0.009 -0.025,0.019 -0.037,0.028 -0.137,-0.086 -0.273,-0.171 -0.405,-0.257 -0.292,-0.19 -0.56,-0.367 -0.808,-0.535 1.273,-0.888 1.972,-1.577 2.008,-2.466 0.028,-0.714 -0.955,-1.776 -2.057,-2.87 0.102,-0.101 0.203,-0.199 0.303,-0.298 0.162,-0.159 0.325,-0.319 0.486,-0.481 0.18,0.158 0.339,0.295 0.465,0.4 0.757,0.633 2.106,2.086 2.211,3.231 C 2.272,-2.103 1.137,-0.855 0,0" /></g><g
           transform="translate(209.2598,64.3105)"
           id="g572"><path
             id="path574"
             style="fill:#22484d;fill-opacity:1;fill-rule:nonzero;stroke:none"
             d="m 0,0 c 0.176,0 0.319,-0.076 0.319,-0.171 0,-0.094 -0.143,-0.171 -0.319,-0.171 -0.176,0 -0.319,0.077 -0.319,0.171 C -0.319,-0.076 -0.176,0 0,0 m 5.989,-7.476 c -2,1.146 -4.635,2.137 -5.65,2.855 -0.407,0.288 -0.836,0.533 -1.239,0.828 -0.275,0.201 -0.653,0.475 -0.719,0.869 -0.015,0.081 -0.012,0.164 0.007,0.244 0.022,0.094 0.065,0.183 0.122,0.26 0.136,0.179 0.351,0.287 0.556,0.226 0.288,-0.085 1.273,0.394 1.818,0.804 0.546,0.41 0.624,0.745 0.354,0.702 0,0 0.016,0.101 0.126,0.152 0.111,0.052 -0.208,1.043 -1.313,1.06 -1.106,0.018 -1.985,-0.393 -2.318,-0.769 -0.333,-0.376 -0.197,-0.564 -0.409,-0.7 -0.212,-0.138 -1,-0.924 -1.121,-2.035 -0.121,-1.111 1.076,-2.564 3,-3.35 1.924,-0.786 4.348,-1.556 5.195,-2.017 0.848,-0.462 2.379,-1.522 1.198,-2.41 -1.182,-0.889 -2.954,-2.086 -4.091,-2.94 -1.136,-0.855 -2.273,-2.103 -2.166,-3.248 0.106,-1.145 1.454,-2.598 2.212,-3.231 0.757,-0.633 2.711,-2.41 2.892,-2.957 0.183,-0.547 0.562,-1.043 -0.317,-2.238 C 4.064,-25.455 4.002,-25.535 3.939,-25.615 3.59,-26.062 3.225,-26.496 2.902,-26.961 2.535,-27.49 2.219,-28.059 2.027,-28.674 1.926,-29 1.861,-29.338 1.84,-29.678 c -0.011,-0.181 -0.01,-0.361 0.002,-0.541 0.025,-0.342 0.117,-0.707 0.281,-1.01 0.1,-0.183 0.207,-0.371 0.219,-0.359 0.025,0.027 -0.232,0.785 -0.276,1.123 -0.076,0.561 0.077,1.623 0.872,2.666 0.794,1.043 2.203,2.119 2.505,2.906 0.303,0.786 0.713,1.59 -0.771,3.213 -1.485,1.623 -3.97,3.624 -3.924,4.752 0.045,1.128 1.151,1.931 3.15,3.231 0.814,0.528 1.663,1.007 2.457,1.564 0.829,0.581 1.604,1.342 1.553,2.434 -0.049,1.056 -1.096,1.752 -1.919,2.223" /></g></g></g><text
       id="text578"
       style="font-variant:normal;font-weight:normal;font-stretch:normal;font-size:23px;font-family:Lato;-inkscape-font-specification:Lato-Regular;writing-mode:lr-tb;fill:#231f20;fill-opacity:1;fill-rule:nonzero;stroke:none"
       transform="matrix(1,0,0,-1,11.7192,53.7378)"><tspan
         id="tspan576"
         y="0"
         x="0 12.19 23.851 36.639 49.426998 59.409 63.848 75.509003 84.087997 88.527 100.717 112.378 118.266 130.04201 142.83">Sanus at Salvus</tspan></text>
</g></svg>