<?xml version="1.0" encoding="UTF-8" standalone="no"?>
<svg
   xmlns:dc="http://purl.org/dc/elements/1.1/"
   xmlns:cc="http://creativecommons.org/ns#"
   xmlns:rdf="http://www.w3.org/1999/02/22-rdf-syntax-ns#"
   xmlns:svg="http://www.w3.org/2000/svg"
   xmlns="http://www.w3.org/2000/svg"
   viewBox="0 0 377.94666 377.94666"
   height="377.94666"
   width="377.94666"
   xml:space="preserve"
   id="svg2"
   version="1.1"><metadata
     id="metadata8"><rdf:RDF><cc:Work
         rdf:about=""><dc:format>image/svg+xml</dc:format><dc:type
           rdf:resource="http://purl.org/dc/dcmitype/StillImage" /></cc:Work></rdf:RDF></metadata><defs
     id="defs6"><linearGradient
       id="linearGradient28"
       spreadMethod="pad"
       gradientTransform="matrix(200.07539,200.07539,200.07539,-200.07539,42.648926,41.179687)"
       gradientUnits="userSpaceOnUse"
       y2="0"
       x2="1"
       y1="0"
       x1="0"><stop
         id="stop24"
         offset="0"
         style="stop-opacity:1;stop-color:#68c6f0" /><stop
         id="stop26"
         offset="1"
         style="stop-opacity:1;stop-color:#3652a4" /></linearGradient><clipPath
       id="clipPath38"
       clipPathUnits="userSpaceOnUse"><path
         id="path36"
         d="M 0,283.46 H 283.46 V 0 H 0 Z" /></clipPath><clipPath
       id="clipPath50"
       clipPathUnits="userSpaceOnUse"><path
         id="path48"
         d="M 0,283.46 H 283.46 V 0 H 0 Z" /></clipPath></defs><g
     transform="matrix(1.3333333,0,0,-1.3333333,0,377.94667)"
     id="g10"><g
       id="g12"><g
         id="g14"><g
           id="g20"><g
             id="g22"><path
               id="path30"
               style="fill:url(#linearGradient28);stroke:none"
               d="M 0.956,141.218 C 0.956,63.393 64.138,0.269 142.184,0 v 0 h 1.007 c 72.449,0.25 132.09,54.662 140.269,124.722 v 0 32.992 c -8.197,70.221 -68.097,124.722 -140.772,124.722 v 0 C 64.411,282.436 0.956,219.21 0.956,141.218" /></g></g></g></g><g
       id="g32"><g
         clip-path="url(#clipPath38)"
         id="g34"><g
           transform="translate(284.417,141.2178)"
           id="g40"><path
             id="path42"
             style="fill:none;stroke:#ffffff;stroke-width:1;stroke-linecap:butt;stroke-linejoin:miter;stroke-miterlimit:10;stroke-dasharray:none;stroke-opacity:1"
             d="m 0,0 c 0,-77.992 -63.455,-141.219 -141.729,-141.219 -78.277,0 -141.732,63.227 -141.732,141.219 0,77.993 63.455,141.219 141.732,141.219 C -63.455,141.219 0,77.993 0,0 Z" /></g></g></g><g
       id="g44"><g
         clip-path="url(#clipPath50)"
         id="g46"><g
           transform="translate(227.2598,68.7314)"
           id="g52"><path
             id="path54"
             style="fill:#102744;fill-opacity:1;fill-rule:nonzero;stroke:none"
             d="m 0,0 c 3.306,-10.976 0.229,-21.608 -6.869,-23.746 -7.102,-2.136 -15.533,5.029 -18.84,16.009 -3.305,10.978 -0.225,21.606 6.873,23.745 C -11.736,18.146 -3.303,10.978 0,0" /></g><g
           transform="translate(206.0186,54.7432)"
           id="g56"><path
             id="path58"
             style="fill:#1f3860;fill-opacity:1;fill-rule:nonzero;stroke:none"
             d="m 0,0 -9.64,-3.42 c -1.739,-0.615 -3.648,0.294 -4.266,2.036 l -2.302,6.49 c -0.616,1.739 0.292,3.649 2.029,4.265 l 9.64,3.419 z" /></g><g
           transform="translate(86.1245,112.7842)"
           id="g60"><path
             id="path62"
             style="fill:#1f3860;fill-opacity:1;fill-rule:nonzero;stroke:none"
             d="m 0,0 c -10.529,0 -20.931,1.836 -26.79,7.319 -10.025,9.386 -4.791,22.324 -0.568,27.942 l 15.675,24.347 4.667,-3.006 -15.855,-24.61 C -23.241,31.5 -31.924,19.729 -22.996,11.373 -13.763,2.73 15.76,5.159 28.237,9.754 39.714,13.98 114.238,48.788 114.99,49.139 l 2.351,-5.03 C 114.263,42.671 41.852,8.854 30.157,4.546 24.445,2.44 12.138,0 0,0" /></g><g
           transform="translate(76.7744,170.8901)"
           id="g64"><path
             id="path66"
             style="fill:#ffffff;fill-opacity:1;fill-rule:nonzero;stroke:none"
             d="m 0,0 c 14.257,-8.675 32.913,-4.131 41.586,10.128 l 16.603,27.297 c 3.793,6.234 1.806,14.392 -4.429,18.185 l -1.463,0.89 -3.302,-5.429 1.463,-0.889 c 3.241,-1.973 4.275,-6.214 2.303,-9.455 L 36.157,13.43 C 29.305,2.165 14.566,-1.425 3.302,5.428 -7.962,12.279 -11.551,27.019 -4.7,38.283 L 11.904,65.58 c 1.971,3.241 6.213,4.274 9.456,2.301 l 2.042,-1.242 3.303,5.429 -2.043,1.242 C 18.426,77.104 10.268,75.116 6.476,68.882 L -10.128,41.585 C -18.801,27.327 -14.257,8.672 0,0" /></g><g
           transform="translate(115.2188,231.6377)"
           id="g68"><path
             id="path70"
             style="fill:#1f3860;fill-opacity:1;fill-rule:nonzero;stroke:none"
             d="m 0,0 v 0 c -1.672,-2.748 -0.799,-6.332 1.95,-8.004 l 4.976,-3.027 c 2.748,-1.671 6.331,-0.798 8.003,1.949 1.672,2.75 0.8,6.332 -1.949,8.005 L 8.004,1.95 C 5.255,3.622 1.672,2.749 0,0" /></g><g
           transform="translate(97.0679,242.6782)"
           id="g72"><path
             id="path74"
             style="fill:#1f3860;fill-opacity:1;fill-rule:nonzero;stroke:none"
             d="m 0,0 v 0 c -1.671,-2.748 -0.798,-6.332 1.95,-8.003 l 4.976,-3.028 c 2.749,-1.672 6.331,-0.799 8.004,1.949 1.672,2.749 0.799,6.332 -1.949,8.005 L 8.003,1.95 C 5.255,3.621 1.672,2.749 0,0" /></g><g
           transform="translate(216.1572,147.7261)"
           id="g76"><path
             id="path78"
             style="fill:#dc3f68;fill-opacity:1;fill-rule:nonzero;stroke:none"
             d="m 0,0 c -2.809,-11.893 -9.289,-22.71 -18.742,-31.275 l -47.949,-42.776 -47.149,42.79 c -9.456,8.551 -15.938,19.368 -18.745,31.261 -1.945,8.248 -1.308,13.293 -1.145,14.26 1.972,21.741 17.36,37.514 36.626,37.514 12.619,0 23.893,-6.76 30.439,-17.968 6.607,11.054 18.361,17.968 31.186,17.968 19.263,0 34.656,-15.773 36.621,-37.514 C 1.298,13.293 1.944,8.235 0,0" /></g><g
           transform="translate(224.9072,68.0234)"
           id="g80"><path
             id="path82"
             style="fill:#ffffff;fill-opacity:1;fill-rule:nonzero;stroke:none"
             d="m 0,0 c 2.832,-9.412 0.427,-18.454 -5.372,-20.197 -5.798,-1.748 -12.796,4.467 -15.628,13.875 -2.833,9.41 -0.429,18.454 5.371,20.2 C -9.83,15.622 -2.832,9.407 0,0" /></g><g
           transform="translate(63.3774,144.9531)"
           id="g84"><path
             id="path86"
             style="fill:#ffffff;fill-opacity:1;fill-rule:nonzero;stroke:none"
             d="m 0,0 -4.667,3.005 15.731,24.434 4.667,-3.006 z" /></g><g
           transform="translate(217.1768,171.5264)"
           id="g88"><path
             id="path90"
             style="fill:#1f3860;fill-opacity:1;fill-rule:nonzero;stroke:none"
             d="m 0,0 c -0.652,0.133 -1.234,0.073 -1.744,-0.115 0.585,-1.841 1.171,-4.134 1.473,-6.205 0.969,-0.336 1.691,-0.861 1.792,-1.919 0.164,-1.648 -0.616,-3.59 -1.138,-5.109 -1.087,-3.154 -2.576,-6.227 -4.257,-9.11 -3.903,-6.714 -9.338,-12.405 -15.269,-17.368 -14.176,-11.866 -31.64,-19.887 -49.125,-25.517 -5.271,-1.697 -10.614,-3.174 -16.009,-4.425 -2.57,-0.593 -5.166,-1.221 -7.774,-1.631 -0.934,-0.149 -1.892,-0.303 -2.842,-0.174 -0.503,0.069 -1.075,0.155 -1.075,0.155 l -5.136,3.868 c -0.258,-0.288 -0.476,-0.636 -0.633,-1.054 -1.834,-4.898 1.591,-8.668 6.424,-9.109 5.217,-0.476 11.072,1.563 16.084,2.817 11.632,2.919 23.004,6.884 33.908,11.877 18.379,8.415 37.91,20.72 47.69,39.096 C 6.329,-16.484 12.627,-2.592 0,0" /></g><g
           transform="translate(198.4756,62.6309)"
           id="g92"><path
             id="path94"
             style="fill:#1f3860;fill-opacity:1;fill-rule:nonzero;stroke:none"
             d="m 0,0 c -11.964,-4.443 -22.85,-11.679 -35.226,-14.997 -10.623,-2.849 -23.733,-2.543 -30.816,7.147 -2.645,3.619 -4.301,8.276 -3.427,12.775 0.908,4.681 4.395,8.125 8.391,10.415 8.729,5.007 19.277,6.404 28.631,9.928 10.131,3.816 19.097,9.355 26.517,17.182 5.028,4.28 2.386,9.1 2.386,9.1 l -2.158,-1.879 -0.666,-0.632 c -2.989,-2.518 -11.057,-9.226 -14.439,-10.998 -5.116,-3.379 -10.711,-6.008 -16.742,-8.067 -9.982,-3.405 -21.461,-4.978 -30.007,-11.577 -8.761,-6.763 -10.53,-18.138 -4.968,-27.59 6.234,-10.594 18.431,-14.596 30.211,-13.357 16,1.685 29.2,11.128 43.952,16.605 C 5.326,-4.576 3.733,1.39 0,0" /></g><g
           transform="translate(181.4531,178.7261)"
           id="g96"><path
             id="path98"
             style="fill:#22484d;fill-opacity:1;fill-rule:nonzero;stroke:none"
             d="m 0,0 c -0.623,0.016 -1.299,0.073 -1.483,0.241 -0.366,0.331 -0.629,1.026 -0.696,1.886 -0.066,0.861 -0.099,3.905 -3.144,4.17 -3.045,0.265 -4.798,-1.456 -7.479,-2.813 -2.68,-1.357 -8.306,-4.071 -11.749,-4.798 -2.754,-0.583 1.681,-0.657 4.018,-0.527 1.463,0.677 10.269,4.757 11.927,5.419 0,0 -7.793,-3.928 -11.827,-5.982 -0.528,-0.368 -1.006,-0.781 -0.807,-0.963 0.294,-0.27 2.735,-0.448 4.706,-0.212 1.251,0.532 5.877,2.52 8.286,3.85 0,0 -4.834,-2.83 -7.664,-4.025 -0.77,-0.434 -1.59,-1.011 -1.291,-1.367 0.411,-0.488 3.082,-0.277 4.686,0.215 1.105,0.668 3.859,2.347 4.63,2.938 0.066,0.052 0.103,0.081 0.103,0.081 -0.028,-0.024 -0.064,-0.051 -0.103,-0.081 -0.472,-0.374 -2.519,-1.98 -4.257,-3.121 -0.431,-0.494 -0.84,-1.135 -0.426,-1.454 0.632,-0.49 2.743,0.298 4.088,1.012 0.642,0.531 1.733,1.464 2.153,2.032 0,0 -0.795,-1.133 -1.968,-2.203 -0.408,-0.587 -0.968,-1.544 -0.566,-1.901 0.496,-0.441 2.074,0.085 3.026,0.732 0.354,0.413 0.936,1.13 1.212,1.684 0,0 -0.326,-1.044 -0.968,-1.869 -0.103,-0.381 -0.114,-0.845 0.336,-1.043 0.725,-0.318 1.525,0.123 2.245,0.838 0.226,0.326 0.535,0.797 0.754,1.214 0,0 -0.311,-0.819 -0.626,-1.446 -0.046,-0.278 -0.017,-0.584 0.275,-0.711 0.404,-0.175 1.826,0.308 2.711,1.87 z" /></g><g
           transform="translate(181.6006,178.1675)"
           id="g100"><path
             id="path102"
             style="fill:#dbebee;fill-opacity:1;fill-rule:nonzero;stroke:none"
             d="M 0,0 C 0,0.001 -0.239,0.003 -0.263,0.004 -0.579,0.011 -0.896,0.026 -1.21,0.068 -1.307,0.082 -1.402,0.098 -1.496,0.12 -1.815,0.192 -1.912,0.302 -2.001,0.401 -2.356,0.799 -2.593,1.485 -2.657,2.315 -2.66,2.36 -2.664,2.413 -2.667,2.47 -2.732,3.453 -2.905,6.066 -5.62,6.301 -5.822,6.319 -6.023,6.329 -6.22,6.329 -6.436,6.329 -6.652,6.317 -6.867,6.295 -8.39,6.134 -9.621,5.336 -10.949,4.664 -11.028,4.624 -11.106,4.585 -11.185,4.545 -11.397,4.44 -11.609,4.334 -11.821,4.229 -12.149,4.067 -12.477,3.898 -12.81,3.746 c -0.563,-0.258 -1.036,-0.468 -1.036,-0.471 0,-0.005 0.466,0.184 1.03,0.424 0.326,0.139 0.644,0.298 0.965,0.448 0.726,0.342 1.429,0.721 2.148,1.077 0.665,0.328 1.356,0.607 2.084,0.76 0.46,0.098 0.93,0.146 1.399,0.146 0.191,0 0.387,-0.009 0.583,-0.026 2.545,-0.221 2.703,-2.622 2.771,-3.647 0.005,-0.064 0.008,-0.114 0.011,-0.158 0.046,-0.612 0.18,-1.346 0.537,-1.856 0.372,-0.529 0.717,-0.523 1.332,-0.599 0.097,-0.012 0.994,-0.052 0.994,-0.043 C 0.006,-0.132 0.002,-0.066 0,0" /></g><g
           transform="translate(208.3506,177.3911)"
           id="g104"><path
             id="path106"
             style="fill:#22484d;fill-opacity:1;fill-rule:nonzero;stroke:none"
             d="m 0,0 c -3.441,0.728 -9.068,3.441 -11.749,4.798 -2.68,1.357 -4.435,3.078 -7.479,2.813 -3.044,-0.264 -3.077,-3.309 -3.144,-4.17 -0.065,-0.86 -0.33,-1.555 -0.694,-1.886 -0.189,-0.171 -0.893,-0.227 -1.527,-0.242 l -0.141,-6.181 c 0.877,-1.684 2.376,-2.203 2.793,-2.022 0.292,0.128 0.321,0.432 0.275,0.712 -0.314,0.627 -0.626,1.445 -0.626,1.445 0.218,-0.417 0.527,-0.888 0.753,-1.214 0.721,-0.714 1.521,-1.156 2.245,-0.838 0.45,0.199 0.44,0.662 0.336,1.043 -0.641,0.825 -0.968,1.869 -0.968,1.869 0.278,-0.554 0.859,-1.271 1.212,-1.684 0.952,-0.647 2.53,-1.172 3.027,-0.731 0.402,0.356 -0.159,1.314 -0.566,1.9 -1.173,1.071 -1.969,2.203 -1.969,2.203 0.42,-0.568 1.511,-1.502 2.154,-2.031 1.344,-0.715 3.454,-1.502 4.088,-1.013 0.414,0.32 0.003,0.96 -0.427,1.454 -1.738,1.142 -3.784,2.748 -4.256,3.122 -0.039,0.028 -0.074,0.057 -0.103,0.081 0,0 0.037,-0.03 0.103,-0.081 0.77,-0.591 3.525,-2.271 4.629,-2.939 1.604,-0.491 4.275,-0.702 4.687,-0.214 0.299,0.355 -0.522,0.932 -1.293,1.367 -2.828,1.195 -7.663,4.024 -7.663,4.024 2.409,-1.329 7.034,-3.317 8.286,-3.85 1.971,-0.235 4.413,-0.057 4.707,0.213 0.199,0.181 -0.279,0.594 -0.808,0.962 C -8.151,0.965 -15.944,4.892 -15.944,4.892 -14.286,4.229 -5.479,0.151 -4.018,-0.527 -1.681,-0.657 2.755,-0.583 0,0" /></g><g
           transform="translate(183.6533,178.1465)"
           id="g108"><path
             id="path110"
             style="fill:#dbebee;fill-opacity:1;fill-rule:nonzero;stroke:none"
             d="M 0,0 C 0.001,0.002 0.239,0.003 0.262,0.004 0.578,0.011 0.896,0.026 1.209,0.069 1.306,0.083 1.401,0.099 1.496,0.121 1.815,0.193 1.911,0.302 2,0.401 2.355,0.8 2.592,1.486 2.656,2.315 2.659,2.361 2.663,2.413 2.667,2.47 2.731,3.454 2.904,6.066 5.619,6.302 5.821,6.32 6.022,6.329 6.22,6.329 6.436,6.329 6.651,6.317 6.867,6.295 8.39,6.135 9.62,5.336 10.949,4.664 11.027,4.625 11.105,4.585 11.185,4.546 11.396,4.44 11.608,4.335 11.82,4.23 12.148,4.067 12.476,3.898 12.81,3.747 13.371,3.488 13.844,3.278 13.844,3.276 13.845,3.271 13.379,3.459 12.815,3.7 12.489,3.838 12.17,3.997 11.85,4.147 11.125,4.49 10.422,4.869 9.702,5.224 9.038,5.552 8.346,5.831 7.618,5.985 7.159,6.083 6.688,6.13 6.22,6.13 6.029,6.13 5.833,6.121 5.637,6.104 3.091,5.883 2.933,3.482 2.865,2.457 2.861,2.393 2.857,2.344 2.854,2.299 2.807,1.687 2.674,0.954 2.316,0.444 1.946,-0.085 1.6,-0.08 0.985,-0.156 0.888,-0.167 -0.009,-0.208 -0.009,-0.199 -0.006,-0.133 -0.004,-0.066 0,0" /></g><g
           transform="translate(181.2236,181.4517)"
           id="g112"><path
             id="path114"
             style="fill:#22484d;fill-opacity:1;fill-rule:nonzero;stroke:none"
             d="m 0,0 c -0.079,-0.061 -0.133,-0.171 -0.133,-0.301 0,-0.192 0.117,-0.347 0.265,-0.347 H 1.159 C 0.693,-0.588 0.282,-0.349 0,0" /></g><g
           transform="translate(184.001,181.4517)"
           id="g116"><path
             id="path118"
             style="fill:#22484d;fill-opacity:1;fill-rule:nonzero;stroke:none"
             d="m 0,0 c -0.282,-0.349 -0.691,-0.588 -1.158,-0.648 h 1.028 c 0.146,0 0.264,0.155 0.264,0.347 C 0.134,-0.171 0.08,-0.061 0,0" /></g><g
           transform="translate(184.2012,182.5737)"
           id="g120"><path
             id="path122"
             style="fill:#22484d;fill-opacity:1;fill-rule:nonzero;stroke:none"
             d="m 0,0 c 0,-0.877 -0.712,-1.588 -1.589,-1.588 -0.877,0 -1.589,0.711 -1.589,1.588 0,0.877 0.712,1.589 1.589,1.589 C -0.712,1.589 0,0.877 0,0" /></g><g
           transform="translate(181.999,157.3696)"
           id="g124"><path
             id="path126"
             style="fill:#22484d;fill-opacity:1;fill-rule:nonzero;stroke:none"
             d="M 0,0 C 0.284,0.203 0.577,0.409 0.868,0.614 0.939,0.665 1.01,0.715 1.082,0.766 L 1.161,4.227 C 0.818,4.368 0.396,4.527 -0.075,4.7 Z" /></g><g
           transform="translate(182.8525,148.1523)"
           id="g128"><path
             id="path130"
             style="fill:#22484d;fill-opacity:1;fill-rule:nonzero;stroke:none"
             d="m 0,0 c -0.219,0.222 -0.465,0.462 -0.718,0.698 l 0.082,-5.164 c 0.177,0.253 0.365,0.497 0.551,0.733 z" /></g><g
           transform="translate(182.9014,150.2852)"
           id="g132"><path
             id="path134"
             style="fill:#22484d;fill-opacity:1;fill-rule:nonzero;stroke:none"
             d="M 0,0 0.126,5.529 C -0.249,5.28 -0.581,5.053 -0.866,4.84 L -0.802,0.803 C -0.542,0.534 -0.268,0.264 0,0" /></g><g
           transform="translate(182.5381,164.1304)"
           id="g136"><path
             id="path138"
             style="fill:#22484d;fill-opacity:1;fill-rule:nonzero;stroke:none"
             d="m 0,0 c 0.219,-0.102 0.443,-0.206 0.673,-0.313 l 0.393,17.271 c -0.284,-0.19 -0.625,-0.301 -0.992,-0.301 -0.367,0 -0.708,0.111 -0.992,0.301 L -0.651,0.304 C -0.442,0.206 -0.226,0.104 0,0" /></g><g
           transform="translate(182.6787,142.5635)"
           id="g140"><path
             id="path142"
             style="fill:#22484d;fill-opacity:1;fill-rule:nonzero;stroke:none"
             d="M 0,0 C -0.176,-0.231 -0.319,-0.466 -0.432,-0.695 L -0.373,-4.4 -0.218,-4.914 -0.054,-4.4 0.049,0.061 C 0.032,0.04 0.017,0.021 0,0" /></g><g
           transform="translate(182.2168,143.6865)"
           id="g144"><path
             id="path146"
             style="fill:#22484d;fill-opacity:1;fill-rule:nonzero;stroke:none"
             d="m 0,0 c 0.047,0.068 0.096,0.135 0.145,0.202 -0.142,0.19 -0.289,0.376 -0.437,0.561 -0.166,0.206 -0.333,0.412 -0.49,0.624 -0.85,1.158 -0.484,1.639 -0.307,2.169 0.088,0.266 0.615,0.839 1.209,1.418 C -0.125,5.209 -0.382,5.446 -0.63,5.668 -0.87,5.427 -1.1,5.19 -1.311,4.961 -2.747,3.39 -2.351,2.611 -2.058,1.851 -1.828,1.255 -0.943,0.486 -0.2,-0.305 -0.137,-0.203 -0.071,-0.103 0,0" /></g><g
           transform="translate(181.1064,156.7236)"
           id="g148"><path
             id="path150"
             style="fill:#22484d;fill-opacity:1;fill-rule:nonzero;stroke:none"
             d="M 0,0 C 0.357,0.265 0.769,0.559 1.191,0.858 0.39,1.424 -0.443,2.009 -1.094,2.498 -2.237,3.358 -0.757,4.384 0.064,4.831 0.29,4.953 0.633,5.1 1.048,5.261 0.768,5.365 0.468,5.475 0.155,5.588 -0.187,5.713 -0.55,5.845 -0.916,5.981 -1.106,5.88 -1.294,5.778 -1.475,5.674 -2.539,5.065 -3.729,4.043 -3.188,2.686 -2.769,1.631 -1.677,1.044 -0.763,0.476 -0.508,0.318 -0.254,0.16 0,0" /></g><g
           transform="translate(183.1055,142.7422)"
           id="g152"><path
             id="path154"
             style="fill:#22484d;fill-opacity:1;fill-rule:nonzero;stroke:none"
             d="M 0,0 C -0.036,0.067 -0.073,0.134 -0.112,0.2 -0.219,0.078 -0.321,-0.043 -0.414,-0.162 -0.18,-0.487 0.03,-0.844 0.109,-1.237 0.204,-1.711 0.03,-2.229 -0.137,-2.67 c 0.036,0.021 0.092,0.072 0.116,0.099 0.042,0.044 0.076,0.096 0.105,0.149 0.295,0.538 0.38,1.064 0.224,1.654 C 0.236,-0.501 0.128,-0.245 0,0" /></g><g
           transform="translate(185.4277,169.3037)"
           id="g156"><path
             id="path158"
             style="fill:#22484d;fill-opacity:1;fill-rule:nonzero;stroke:none"
             d="m 0,0 c -0.171,0 -0.31,0.074 -0.31,0.165 0,0.091 0.139,0.166 0.31,0.166 0.17,0 0.309,-0.075 0.309,-0.166 C 0.309,0.074 0.17,0 0,0 M 3.676,-2.554 C 3.56,-1.479 2.797,-0.717 2.592,-0.584 2.386,-0.452 2.518,-0.27 2.195,0.094 1.873,0.458 1.022,0.855 -0.048,0.838 -1.119,0.821 -1.427,-0.138 -1.32,-0.188 c 0.107,-0.049 0.122,-0.147 0.122,-0.147 -0.261,0.042 -0.185,-0.283 0.344,-0.68 0.527,-0.397 1.481,-0.86 1.759,-0.778 0.199,0.059 0.407,-0.046 0.538,-0.219 0.056,-0.074 0.098,-0.16 0.119,-0.252 C 1.58,-2.34 1.583,-2.421 1.569,-2.5 1.504,-2.88 1.139,-3.146 0.872,-3.341 0.482,-3.626 0.067,-3.864 -0.327,-4.143 c -0.472,-0.334 -1.306,-0.729 -2.26,-1.171 0.664,-0.309 1.372,-0.643 2.042,-0.995 0.448,0.168 0.896,0.339 1.318,0.512 1.863,0.761 3.021,2.168 2.903,3.243" /></g><g
           transform="translate(183.9717,156.375)"
           id="g160"><path
             id="path162"
             style="fill:#22484d;fill-opacity:1;fill-rule:nonzero;stroke:none"
             d="M 0,0 C -0.012,0.009 -0.024,0.019 -0.036,0.027 -0.168,-0.056 -0.3,-0.139 -0.428,-0.222 -0.711,-0.406 -0.97,-0.576 -1.211,-0.739 c 1.233,-0.86 1.91,-1.527 1.944,-2.389 0.028,-0.689 -0.922,-1.717 -1.99,-2.777 0.099,-0.097 0.196,-0.193 0.293,-0.288 0.157,-0.154 0.315,-0.31 0.471,-0.465 0.173,0.152 0.327,0.285 0.449,0.387 0.733,0.612 2.038,2.019 2.142,3.127 C 2.2,-2.035 1.101,-0.827 0,0" /></g><g
           transform="translate(179.625,169.6343)"
           id="g164"><path
             id="path166"
             style="fill:#22484d;fill-opacity:1;fill-rule:nonzero;stroke:none"
             d="m 0,0 c 0.171,0 0.309,-0.074 0.309,-0.166 0,-0.09 -0.138,-0.165 -0.309,-0.165 -0.17,0 -0.309,0.075 -0.309,0.165 C -0.309,-0.074 -0.17,0 0,0 m 5.798,-7.236 c -1.936,1.109 -4.487,2.068 -5.47,2.763 -0.393,0.279 -0.809,0.516 -1.199,0.801 -0.266,0.195 -0.632,0.461 -0.696,0.841 -0.014,0.079 -0.011,0.16 0.005,0.237 0.023,0.091 0.064,0.177 0.12,0.252 0.131,0.173 0.339,0.278 0.538,0.218 0.279,-0.082 1.232,0.381 1.76,0.779 0.528,0.396 0.604,0.721 0.343,0.679 0,0 0.016,0.098 0.121,0.147 0.108,0.05 -0.2,1.01 -1.27,1.027 -1.071,0.016 -1.921,-0.381 -2.244,-0.745 -0.323,-0.364 -0.191,-0.545 -0.396,-0.678 -0.205,-0.133 -0.969,-0.894 -1.086,-1.97 -0.116,-1.075 1.041,-2.481 2.905,-3.242 1.862,-0.762 4.208,-1.506 5.029,-1.953 0.821,-0.447 2.302,-1.473 1.159,-2.333 -1.145,-0.86 -2.86,-2.019 -3.96,-2.846 -1.1,-0.827 -2.199,-2.035 -2.097,-3.144 0.103,-1.108 1.408,-2.515 2.141,-3.128 0.732,-0.611 2.625,-2.332 2.802,-2.861 0.175,-0.529 0.542,-1.011 -0.309,-2.169 -0.058,-0.079 -0.119,-0.158 -0.181,-0.236 -0.336,-0.432 -0.69,-0.852 -1.003,-1.303 -0.355,-0.51 -0.663,-1.061 -0.847,-1.657 -0.098,-0.316 -0.161,-0.642 -0.182,-0.971 -0.01,-0.176 -0.01,-0.351 0.003,-0.525 0.023,-0.33 0.112,-0.683 0.272,-0.976 0.096,-0.178 0.2,-0.36 0.211,-0.349 0.025,0.026 -0.224,0.76 -0.268,1.086 -0.072,0.544 0.076,1.573 0.845,2.581 0.768,1.01 2.133,2.053 2.426,2.814 0.293,0.761 0.689,1.539 -0.749,3.11 -1.436,1.571 -3.841,3.509 -3.796,4.6 0.043,1.093 1.114,1.87 3.049,3.128 0.788,0.511 1.609,0.975 2.378,1.514 0.802,0.562 1.552,1.3 1.503,2.357 -0.047,1.021 -1.06,1.695 -1.857,2.152" /></g><g
           transform="translate(98.9053,176.3496)"
           id="g168"><path
             id="path170"
             style="fill:#231f20;fill-opacity:1;fill-rule:nonzero;stroke:none"
             d="m 0,0 c -0.058,-0.097 -0.119,-0.169 -0.183,-0.217 -0.065,-0.049 -0.149,-0.072 -0.251,-0.072 -0.11,0 -0.236,0.055 -0.381,0.164 -0.145,0.109 -0.329,0.23 -0.55,0.362 -0.222,0.131 -0.489,0.252 -0.801,0.362 -0.313,0.109 -0.69,0.164 -1.134,0.164 -0.418,0 -0.788,-0.057 -1.11,-0.169 C -4.731,0.481 -5,0.328 -5.215,0.135 c -0.216,-0.193 -0.378,-0.419 -0.488,-0.68 -0.109,-0.261 -0.164,-0.542 -0.164,-0.845 0,-0.385 0.095,-0.706 0.285,-0.96 0.19,-0.254 0.44,-0.47 0.753,-0.651 0.311,-0.18 0.665,-0.336 1.061,-0.468 0.396,-0.132 0.801,-0.268 1.216,-0.41 0.415,-0.142 0.82,-0.301 1.216,-0.477 0.395,-0.177 0.749,-0.401 1.061,-0.671 0.312,-0.27 0.563,-0.601 0.753,-0.994 0.189,-0.392 0.284,-0.875 0.284,-1.448 0,-0.604 -0.103,-1.172 -0.308,-1.703 -0.206,-0.53 -0.507,-0.991 -0.903,-1.384 -0.395,-0.392 -0.881,-0.702 -1.457,-0.926 -0.575,-0.226 -1.23,-0.337 -1.963,-0.337 -0.894,0 -1.71,0.162 -2.446,0.486 -0.737,0.325 -1.366,0.764 -1.887,1.317 l 0.541,0.888 c 0.051,0.07 0.114,0.131 0.188,0.179 0.074,0.048 0.156,0.072 0.246,0.072 0.135,0 0.29,-0.072 0.463,-0.217 0.174,-0.144 0.39,-0.304 0.651,-0.478 0.261,-0.173 0.576,-0.333 0.946,-0.477 0.37,-0.145 0.821,-0.218 1.355,-0.218 0.445,0 0.84,0.062 1.187,0.184 0.348,0.122 0.642,0.295 0.883,0.517 0.242,0.221 0.427,0.486 0.555,0.795 0.129,0.309 0.193,0.653 0.193,1.033 0,0.418 -0.095,0.76 -0.284,1.027 -0.19,0.268 -0.44,0.491 -0.748,0.671 -0.309,0.18 -0.662,0.333 -1.057,0.458 -0.396,0.126 -0.801,0.254 -1.216,0.387 -0.414,0.131 -0.82,0.284 -1.216,0.458 -0.395,0.174 -0.747,0.398 -1.056,0.675 -0.309,0.277 -0.558,0.623 -0.748,1.038 -0.19,0.415 -0.285,0.927 -0.285,1.539 0,0.488 0.095,0.961 0.285,1.418 0.19,0.456 0.465,0.861 0.825,1.215 0.36,0.354 0.806,0.637 1.336,0.85 0.531,0.212 1.14,0.318 1.829,0.318 0.772,0 1.476,-0.122 2.113,-0.367 0.637,-0.244 1.194,-0.598 1.67,-1.061 z" /></g><g
           transform="translate(104.502,165.7363)"
           id="g172"><path
             id="path174"
             style="fill:#231f20;fill-opacity:1;fill-rule:nonzero;stroke:none"
             d="m 0,0 c 0.302,0 0.579,0.03 0.83,0.092 0.251,0.06 0.487,0.147 0.709,0.26 0.222,0.112 0.434,0.249 0.636,0.41 0.203,0.161 0.401,0.343 0.594,0.55 V 3.328 C 1.978,3.328 1.306,3.278 0.752,3.178 0.199,3.078 -0.251,2.946 -0.599,2.785 -0.946,2.623 -1.199,2.433 -1.356,2.212 -1.514,1.992 -1.592,1.747 -1.592,1.475 -1.592,1.216 -1.551,0.993 -1.467,0.806 -1.383,0.617 -1.271,0.464 -1.129,0.344 -0.988,0.225 -0.82,0.137 -0.627,0.082 -0.435,0.026 -0.226,0 0,0 M 4.458,-1.053 H 3.695 c -0.167,0 -0.302,0.027 -0.405,0.078 -0.103,0.051 -0.17,0.161 -0.203,0.328 L 2.895,0.26 C 2.637,0.028 2.386,-0.179 2.142,-0.362 1.897,-0.546 1.64,-0.7 1.37,-0.825 1.1,-0.951 0.812,-1.046 0.506,-1.11 0.201,-1.175 -0.139,-1.206 -0.512,-1.206 c -0.379,0 -0.735,0.053 -1.066,0.159 -0.331,0.107 -0.619,0.266 -0.863,0.48 -0.245,0.213 -0.44,0.482 -0.584,0.808 -0.145,0.325 -0.218,0.711 -0.218,1.156 0,0.388 0.107,0.761 0.319,1.119 0.212,0.358 0.555,0.676 1.028,0.954 0.472,0.277 1.091,0.505 1.857,0.682 0.766,0.178 1.702,0.266 2.808,0.266 V 5.187 C 2.769,5.95 2.606,6.527 2.282,6.919 1.957,7.311 1.476,7.507 0.839,7.507 0.421,7.507 0.069,7.453 -0.217,7.348 -0.504,7.241 -0.751,7.122 -0.96,6.99 -1.169,6.858 -1.35,6.739 -1.501,6.634 -1.652,6.527 -1.802,6.474 -1.949,6.474 c -0.116,0 -0.218,0.03 -0.304,0.091 C -2.34,6.627 -2.41,6.702 -2.461,6.792 L -2.77,7.343 c 0.541,0.52 1.123,0.91 1.747,1.167 0.624,0.258 1.315,0.386 2.074,0.386 0.547,0 1.033,-0.09 1.457,-0.27 C 2.933,8.445 3.29,8.194 3.58,7.873 3.869,7.552 4.087,7.162 4.235,6.705 4.384,6.249 4.458,5.747 4.458,5.2 Z" /></g><g
           transform="translate(111.5645,164.6836)"
           id="g176"><path
             id="path178"
             style="fill:#231f20;fill-opacity:1;fill-rule:nonzero;stroke:none"
             d="m 0,0 v 9.775 h 1.023 c 0.244,0 0.399,-0.119 0.463,-0.357 L 1.621,8.356 C 2.046,8.826 2.52,9.206 3.044,9.495 3.568,9.785 4.175,9.93 4.863,9.93 5.397,9.93 5.868,9.841 6.277,9.664 6.685,9.487 7.026,9.236 7.3,8.911 7.573,8.586 7.78,8.195 7.922,7.739 8.063,7.282 8.135,6.777 8.135,6.224 V 0 H 6.417 V 6.224 C 6.417,6.964 6.248,7.538 5.91,7.946 5.573,8.354 5.056,8.56 4.361,8.56 3.854,8.56 3.379,8.437 2.938,8.192 2.498,7.948 2.091,7.617 1.718,7.199 V 0 Z" /></g><g
           transform="translate(123.7803,174.459)"
           id="g180"><path
             id="path182"
             style="fill:#231f20;fill-opacity:1;fill-rule:nonzero;stroke:none"
             d="m 0,0 v -6.234 c 0,-0.74 0.17,-1.312 0.512,-1.717 0.34,-0.405 0.855,-0.609 1.543,-0.609 0.502,0 0.975,0.12 1.418,0.358 0.444,0.238 0.853,0.569 1.226,0.993 V 0 H 6.417 V -9.775 H 5.394 c -0.245,0 -0.399,0.119 -0.464,0.357 L 4.796,-8.366 C 4.372,-8.836 3.895,-9.214 3.368,-9.5 2.84,-9.786 2.235,-9.929 1.553,-9.929 c -0.533,0 -1.005,0.088 -1.413,0.265 -0.409,0.177 -0.751,0.427 -1.028,0.748 -0.277,0.321 -0.484,0.711 -0.622,1.167 -0.138,0.457 -0.207,0.962 -0.207,1.515 l 0,6.234 z" /></g><g
           transform="translate(138.6201,172.8477)"
           id="g184"><path
             id="path186"
             style="fill:#231f20;fill-opacity:1;fill-rule:nonzero;stroke:none"
             d="m 0,0 c -0.077,-0.142 -0.196,-0.213 -0.356,-0.213 -0.097,0 -0.206,0.035 -0.329,0.107 -0.122,0.07 -0.271,0.149 -0.448,0.236 -0.178,0.087 -0.388,0.167 -0.633,0.241 -0.244,0.074 -0.533,0.111 -0.868,0.111 -0.29,0 -0.55,-0.037 -0.782,-0.111 -0.231,-0.074 -0.428,-0.176 -0.593,-0.304 -0.164,-0.129 -0.289,-0.278 -0.376,-0.449 -0.087,-0.17 -0.13,-0.355 -0.13,-0.555 0,-0.25 0.072,-0.459 0.217,-0.626 0.145,-0.168 0.336,-0.313 0.574,-0.435 0.238,-0.122 0.508,-0.23 0.81,-0.323 0.303,-0.093 0.613,-0.193 0.932,-0.299 0.318,-0.107 0.628,-0.224 0.93,-0.353 0.303,-0.128 0.573,-0.289 0.811,-0.482 0.238,-0.193 0.429,-0.429 0.574,-0.709 0.146,-0.28 0.218,-0.616 0.218,-1.009 0,-0.45 -0.081,-0.866 -0.241,-1.249 -0.162,-0.383 -0.4,-0.714 -0.714,-0.994 -0.317,-0.279 -0.701,-0.5 -1.158,-0.66 -0.458,-0.161 -0.985,-0.241 -1.584,-0.241 -0.681,0 -1.299,0.11 -1.852,0.333 -0.553,0.221 -1.023,0.505 -1.408,0.853 l 0.405,0.656 c 0.051,0.083 0.112,0.148 0.183,0.193 0.071,0.045 0.164,0.067 0.279,0.067 0.117,0 0.239,-0.045 0.368,-0.135 0.128,-0.089 0.284,-0.19 0.467,-0.298 0.184,-0.11 0.406,-0.209 0.666,-0.3 0.26,-0.09 0.587,-0.135 0.98,-0.135 0.334,0 0.626,0.044 0.877,0.131 0.251,0.086 0.46,0.203 0.628,0.351 0.167,0.149 0.291,0.319 0.371,0.512 0.08,0.193 0.12,0.399 0.12,0.617 0,0.271 -0.071,0.493 -0.216,0.671 -0.145,0.177 -0.336,0.328 -0.575,0.454 -0.237,0.125 -0.509,0.235 -0.814,0.327 -0.306,0.094 -0.619,0.192 -0.936,0.294 -0.319,0.104 -0.631,0.221 -0.937,0.354 -0.305,0.131 -0.577,0.297 -0.814,0.496 -0.239,0.199 -0.43,0.446 -0.575,0.738 -0.145,0.292 -0.217,0.649 -0.217,1.067 0,0.373 0.077,0.731 0.232,1.076 0.154,0.344 0.379,0.646 0.675,0.906 0.296,0.261 0.659,0.469 1.091,0.622 0.43,0.155 0.922,0.233 1.475,0.233 0.644,0 1.222,-0.102 1.733,-0.305 C -0.429,1.259 0.013,0.98 0.387,0.627 Z" /></g><g
           transform="translate(125.9258,148.0566)"
           id="g188"><path
             id="path190"
             style="fill:#231f20;fill-opacity:1;fill-rule:nonzero;stroke:none"
             d="m 0,0 c 0.281,0 0.54,0.028 0.774,0.086 0.235,0.057 0.455,0.139 0.663,0.243 0.208,0.105 0.405,0.233 0.594,0.383 0.19,0.15 0.375,0.321 0.555,0.515 V 3.109 C 1.848,3.109 1.219,3.063 0.702,2.969 0.186,2.875 -0.234,2.753 -0.56,2.602 -0.884,2.45 -1.12,2.273 -1.268,2.066 -1.414,1.861 -1.488,1.632 -1.488,1.378 c 0,-0.242 0.039,-0.45 0.117,-0.625 C -1.293,0.577 -1.187,0.434 -1.056,0.321 -0.924,0.21 -0.768,0.128 -0.586,0.077 -0.406,0.025 -0.211,0 0,0 M 4.163,-0.982 H 3.451 c -0.156,0 -0.281,0.024 -0.379,0.072 -0.095,0.048 -0.158,0.149 -0.189,0.306 L 2.703,0.243 C 2.463,0.027 2.229,-0.167 2,-0.338 1.771,-0.509 1.531,-0.653 1.279,-0.771 1.026,-0.889 0.758,-0.977 0.473,-1.037 c -0.286,-0.06 -0.604,-0.09 -0.952,-0.09 -0.354,0 -0.686,0.051 -0.996,0.15 -0.308,0.099 -0.578,0.248 -0.806,0.447 -0.229,0.199 -0.41,0.451 -0.545,0.756 -0.136,0.304 -0.203,0.665 -0.203,1.08 0,0.362 0.099,0.711 0.297,1.045 0.199,0.335 0.519,0.631 0.961,0.89 0.441,0.26 1.019,0.473 1.734,0.638 0.715,0.166 1.59,0.249 2.623,0.249 V 4.845 C 2.586,5.559 2.434,6.098 2.131,6.464 1.828,6.829 1.378,7.013 0.783,7.013 0.393,7.013 0.064,6.963 -0.203,6.864 -0.471,6.765 -0.702,6.653 -0.898,6.53 -1.093,6.407 -1.261,6.296 -1.402,6.196 -1.543,6.098 -1.684,6.048 -1.822,6.048 c -0.108,0 -0.202,0.028 -0.283,0.086 -0.082,0.056 -0.147,0.128 -0.194,0.211 l -0.289,0.514 c 0.505,0.487 1.049,0.85 1.631,1.09 0.584,0.241 1.229,0.362 1.939,0.362 0.51,0 0.963,-0.085 1.361,-0.253 C 2.738,7.89 3.072,7.655 3.344,7.354 3.613,7.055 3.818,6.691 3.956,6.265 4.094,5.838 4.163,5.369 4.163,4.858 Z" /></g><g
           transform="translate(135.2891,146.9297)"
           id="g192"><path
             id="path194"
             style="fill:#231f20;fill-opacity:1;fill-rule:nonzero;stroke:none"
             d="M 0,0 C -0.721,0 -1.275,0.201 -1.662,0.604 -2.05,1.007 -2.243,1.587 -2.243,2.345 v 5.587 h -1.101 c -0.095,0 -0.177,0.029 -0.243,0.086 -0.066,0.056 -0.1,0.145 -0.1,0.265 v 0.64 l 1.498,0.19 0.369,2.821 c 0.012,0.089 0.05,0.164 0.117,0.22 0.065,0.058 0.15,0.086 0.253,0.086 h 0.81 V 9.095 H 1.975 V 7.932 H -0.64 v -5.48 c 0,-0.385 0.094,-0.671 0.28,-0.856 0.186,-0.187 0.426,-0.28 0.721,-0.28 0.168,0 0.314,0.023 0.438,0.068 0.122,0.045 0.229,0.095 0.319,0.149 0.09,0.054 0.166,0.103 0.231,0.149 C 1.411,1.727 1.467,1.75 1.515,1.75 1.599,1.75 1.674,1.698 1.74,1.596 L 2.208,0.83 C 1.933,0.571 1.599,0.368 1.208,0.221 0.817,0.074 0.415,0 0,0" /></g><g
           transform="translate(131.2202,139.5449)"
           id="g196"><path
             id="path198"
             style="fill:#231f20;fill-opacity:1;fill-rule:nonzero;stroke:none"
             d="m 0,0 c -0.055,-0.092 -0.113,-0.16 -0.174,-0.205 -0.061,-0.047 -0.14,-0.069 -0.238,-0.069 -0.104,0 -0.224,0.051 -0.361,0.155 C -0.911,-0.015 -1.085,0.1 -1.295,0.225 -1.506,0.35 -1.76,0.465 -2.056,0.568 -2.352,0.672 -2.71,0.724 -3.131,0.724 -3.528,0.724 -3.879,0.67 -4.185,0.563 -4.49,0.457 -4.744,0.312 -4.949,0.129 -5.153,-0.055 -5.308,-0.27 -5.411,-0.517 c -0.105,-0.247 -0.156,-0.514 -0.156,-0.801 0,-0.367 0.089,-0.67 0.27,-0.911 0.18,-0.242 0.418,-0.447 0.714,-0.619 0.297,-0.17 0.632,-0.318 1.008,-0.443 0.375,-0.125 0.76,-0.256 1.153,-0.39 0.394,-0.133 0.778,-0.285 1.153,-0.453 0.376,-0.168 0.712,-0.38 1.008,-0.636 0.296,-0.257 0.534,-0.571 0.714,-0.943 0.181,-0.373 0.271,-0.831 0.271,-1.374 0,-0.573 -0.098,-1.112 -0.293,-1.616 -0.196,-0.504 -0.481,-0.942 -0.857,-1.314 -0.376,-0.372 -0.836,-0.666 -1.383,-0.879 -0.545,-0.213 -1.167,-0.32 -1.863,-0.32 -0.849,0 -1.622,0.153 -2.321,0.462 -0.698,0.309 -1.295,0.725 -1.79,1.25 l 0.512,0.842 c 0.049,0.067 0.109,0.124 0.179,0.17 0.071,0.045 0.149,0.068 0.234,0.068 0.128,0 0.275,-0.068 0.439,-0.205 0.165,-0.139 0.371,-0.289 0.618,-0.454 0.247,-0.165 0.546,-0.315 0.898,-0.453 0.35,-0.138 0.779,-0.206 1.286,-0.206 0.422,0 0.797,0.058 1.127,0.174 0.329,0.116 0.608,0.279 0.838,0.49 0.228,0.211 0.404,0.462 0.526,0.756 0.122,0.293 0.184,0.619 0.184,0.979 0,0.397 -0.091,0.722 -0.271,0.975 -0.181,0.254 -0.417,0.466 -0.71,0.637 -0.293,0.17 -0.627,0.315 -1.003,0.434 -0.375,0.119 -0.76,0.241 -1.153,0.367 -0.394,0.125 -0.778,0.27 -1.154,0.434 -0.375,0.166 -0.709,0.379 -1.002,0.642 -0.293,0.262 -0.531,0.59 -0.71,0.984 -0.18,0.393 -0.271,0.88 -0.271,1.46 0,0.465 0.091,0.913 0.271,1.347 0.179,0.432 0.441,0.817 0.783,1.153 0.342,0.336 0.765,0.604 1.267,0.806 0.504,0.202 1.082,0.302 1.736,0.302 0.733,0 1.401,-0.116 2.005,-0.348 0.604,-0.232 1.133,-0.568 1.585,-1.007 z" /></g><g
           transform="translate(136.5308,129.4736)"
           id="g200"><path
             id="path202"
             style="fill:#231f20;fill-opacity:1;fill-rule:nonzero;stroke:none"
             d="M 0,0 C 0.287,0 0.55,0.028 0.788,0.087 1.026,0.145 1.25,0.227 1.461,0.334 1.671,0.44 1.873,0.569 2.065,0.723 2.258,0.876 2.445,1.05 2.628,1.245 V 3.159 C 1.877,3.159 1.239,3.11 0.715,3.016 0.189,2.921 -0.237,2.796 -0.567,2.643 -0.896,2.489 -1.137,2.309 -1.286,2.1 -1.436,1.891 -1.511,1.657 -1.511,1.399 c 0,-0.246 0.04,-0.457 0.119,-0.634 0.08,-0.18 0.187,-0.325 0.321,-0.439 C -0.937,0.213 -0.777,0.13 -0.595,0.077 -0.412,0.025 -0.214,0 0,0 M 4.23,-0.999 H 3.507 c -0.158,0 -0.287,0.025 -0.385,0.074 -0.098,0.049 -0.161,0.153 -0.191,0.311 L 2.747,0.247 C 2.503,0.026 2.265,-0.17 2.033,-0.344 1.801,-0.518 1.557,-0.665 1.301,-0.784 c -0.257,-0.118 -0.53,-0.209 -0.82,-0.27 -0.29,-0.06 -0.612,-0.091 -0.966,-0.091 -0.36,0 -0.698,0.05 -1.012,0.152 -0.315,0.1 -0.587,0.252 -0.819,0.455 -0.232,0.201 -0.416,0.457 -0.554,0.767 -0.138,0.309 -0.206,0.674 -0.206,1.097 0,0.368 0.1,0.722 0.302,1.062 0.201,0.34 0.526,0.641 0.975,0.904 0.449,0.264 1.036,0.48 1.763,0.648 0.726,0.168 1.614,0.252 2.664,0.252 V 4.921 C 2.628,5.646 2.474,6.194 2.166,6.565 1.857,6.937 1.401,7.123 0.797,7.123 0.4,7.123 0.065,7.073 -0.205,6.972 -0.478,6.872 -0.712,6.759 -0.91,6.634 -1.109,6.509 -1.28,6.396 -1.424,6.295 -1.567,6.194 -1.709,6.144 -1.85,6.144 c -0.109,0 -0.206,0.029 -0.288,0.086 -0.083,0.058 -0.148,0.13 -0.197,0.216 l -0.293,0.522 c 0.513,0.494 1.066,0.863 1.657,1.107 0.593,0.244 1.249,0.367 1.969,0.367 0.519,0 0.98,-0.086 1.383,-0.256 C 2.784,8.015 3.122,7.776 3.397,7.472 3.672,7.166 3.88,6.797 4.021,6.363 4.16,5.93 4.23,5.454 4.23,4.935 Z" /></g><path
           id="path204"
           style="fill:#231f20;fill-opacity:1;fill-rule:nonzero;stroke:none"
           d="m 145.047,128.475 h -1.631 v 13.488 h 1.631 z" /><g
           transform="translate(146.75,137.75)"
           id="g206"><path
             id="path208"
             style="fill:#231f20;fill-opacity:1;fill-rule:nonzero;stroke:none"
             d="m 0,0 h 1.336 c 0.129,0 0.236,-0.033 0.32,-0.1 0.086,-0.068 0.147,-0.146 0.184,-0.238 l 2.353,-5.971 c 0.086,-0.218 0.153,-0.439 0.202,-0.658 0.048,-0.22 0.093,-0.437 0.136,-0.65 0.049,0.213 0.102,0.43 0.156,0.65 0.055,0.219 0.125,0.44 0.211,0.658 l 2.381,5.971 C 7.316,-0.24 7.375,-0.16 7.457,-0.096 7.541,-0.031 7.643,0 7.764,0 H 9.037 L 5.256,-9.275 H 3.781 Z" /></g><g
           transform="translate(158.707,137.75)"
           id="g210"><path
             id="path212"
             style="fill:#231f20;fill-opacity:1;fill-rule:nonzero;stroke:none"
             d="m 0,0 v -5.915 c 0,-0.702 0.162,-1.245 0.486,-1.63 0.325,-0.385 0.811,-0.576 1.465,-0.576 0.477,0 0.926,0.113 1.346,0.339 0.422,0.225 0.808,0.54 1.164,0.942 V 0 H 6.09 V -9.275 H 5.119 c -0.232,0 -0.379,0.113 -0.439,0.339 L 4.551,-7.938 C 4.148,-8.384 3.697,-8.742 3.197,-9.014 2.695,-9.285 2.121,-9.421 1.475,-9.421 c -0.506,0 -0.954,0.083 -1.342,0.251 -0.387,0.168 -0.711,0.404 -0.975,0.71 -0.262,0.306 -0.459,0.675 -0.59,1.108 -0.132,0.434 -0.197,0.913 -0.197,1.437 V 0 Z" /></g><g
           transform="translate(172.791,136.2217)"
           id="g214"><path
             id="path216"
             style="fill:#231f20;fill-opacity:1;fill-rule:nonzero;stroke:none"
             d="m 0,0 c -0.072,-0.134 -0.187,-0.202 -0.34,-0.202 -0.09,0 -0.195,0.034 -0.31,0.101 -0.116,0.067 -0.258,0.142 -0.426,0.225 -0.168,0.082 -0.367,0.158 -0.6,0.229 -0.232,0.07 -0.506,0.105 -0.824,0.105 -0.275,0 -0.521,-0.035 -0.742,-0.105 C -3.461,0.282 -3.648,0.187 -3.805,0.063 -3.961,-0.058 -4.08,-0.2 -4.162,-0.362 c -0.082,-0.161 -0.123,-0.337 -0.123,-0.526 0,-0.238 0.068,-0.437 0.205,-0.595 0.139,-0.16 0.32,-0.296 0.545,-0.413 0.226,-0.116 0.482,-0.218 0.769,-0.306 0.287,-0.089 0.582,-0.184 0.883,-0.284 0.303,-0.101 0.598,-0.212 0.885,-0.334 0.287,-0.122 0.543,-0.275 0.769,-0.458 0.225,-0.184 0.407,-0.408 0.545,-0.673 0.137,-0.266 0.205,-0.585 0.205,-0.957 0,-0.427 -0.076,-0.823 -0.228,-1.187 -0.152,-0.362 -0.379,-0.676 -0.678,-0.942 -0.299,-0.266 -0.666,-0.475 -1.099,-0.627 -0.434,-0.153 -0.934,-0.229 -1.5,-0.229 -0.649,0 -1.235,0.105 -1.76,0.316 -0.524,0.211 -0.969,0.48 -1.336,0.81 l 0.385,0.623 c 0.049,0.079 0.107,0.139 0.174,0.182 0.066,0.043 0.156,0.065 0.265,0.065 0.11,0 0.227,-0.043 0.348,-0.128 0.123,-0.085 0.269,-0.181 0.443,-0.284 0.174,-0.104 0.385,-0.198 0.633,-0.284 0.246,-0.086 0.557,-0.129 0.93,-0.129 0.316,0 0.593,0.042 0.832,0.124 0.238,0.083 0.437,0.195 0.595,0.335 0.159,0.14 0.276,0.301 0.354,0.485 0.076,0.183 0.113,0.379 0.113,0.586 0,0.257 -0.068,0.468 -0.205,0.636 -0.139,0.168 -0.32,0.311 -0.545,0.431 -0.226,0.118 -0.484,0.223 -0.773,0.311 -0.291,0.088 -0.586,0.182 -0.889,0.28 -0.303,0.097 -0.598,0.209 -0.889,0.334 -0.289,0.125 -0.548,0.282 -0.773,0.471 -0.227,0.189 -0.408,0.423 -0.545,0.701 -0.137,0.277 -0.205,0.615 -0.205,1.011 0,0.354 0.072,0.695 0.219,1.022 0.146,0.326 0.359,0.613 0.64,0.86 0.282,0.247 0.627,0.445 1.035,0.591 0.409,0.147 0.875,0.219 1.401,0.219 0.611,0 1.158,-0.096 1.644,-0.287 0.485,-0.194 0.905,-0.457 1.258,-0.793 z" /></g></g></g></g></svg>